<?xml version="1.0" encoding="UTF-8"?>
<svg width="240px" height="120px" viewBox="0 0 240 120" version="1.1" xmlns="http://www.w3.org/2000/svg" xmlns:xlink="http://www.w3.org/1999/xlink">
    <title>Illustration</title>
    <defs>
        <rect id="path-1" x="0" y="0" width="240" height="120"></rect>
    </defs>
    <g id="Modules" stroke="none" stroke-width="1" fill="none" fill-rule="evenodd">
        <g id="Module-View" transform="translate(-330.000000, -393.000000)">
            <g id="Main-Body" transform="translate(330.000000, 94.000000)">
                <g id="Course-Tiles" transform="translate(0.000000, 264.000000)">
                    <g id="Group" transform="translate(0.000000, 35.000000)">
                        <mask id="mask-2" fill="white">
                            <use xlink:href="#path-1"></use>
                        </mask>
                        <use id="Rectangle" fill="#FFF9DB" xlink:href="#path-1"></use>
                        <g mask="url(#mask-2)" fill="#F59E01" fill-rule="nonzero">
                            <g transform="translate(119.000000, 48.000000) scale(-1, 1) rotate(-180.000000) translate(-119.000000, -48.000000) translate(9.000000, 23.000000)">
                                <rect id="Rectangle" stroke="none" x="0" y="13.898344" width="202.189275" height="1"></rect>
                                <rect id="Rectangle" stroke="none" x="2.21671759" y="34.002633" width="58.7922766" height="1"></rect>
                                <path d="M5.51716379,41.4101283 C5.51716379,41.2119345 5.70599529,41.0963214 6.08365828,41.0632891 C6.23143946,41.0632891 6.30533004,41.0178696 6.30533004,40.9270308 C6.30533004,40.9187727 6.29711998,40.8650952 6.28069985,40.7659983 C6.25606965,40.6503852 6.23143946,40.5760625 6.20680926,40.5430302 C6.18217907,40.5099979 6.12881364,40.4934817 6.04671299,40.4934817 C6.03029286,40.4934817 5.98103247,40.4934817 5.89893182,40.4934817 C5.81683117,40.4934817 5.67726006,40.4976108 5.48021849,40.5058688 C5.28317693,40.5141269 5.02045485,40.518256 4.69205224,40.518256 C4.10913761,40.518256 3.73557965,40.5099979 3.57137834,40.4934817 L3.47285756,40.4934817 C3.41538711,40.5512883 3.38665188,40.5967077 3.38665188,40.62974 C3.40307201,40.8527081 3.45643743,40.9972244 3.54674815,41.0632891 L3.71915952,41.0632891 C4.29386408,41.0880633 4.7125774,41.2945152 4.97529949,41.6826449 C5.02455988,41.7321933 5.76757077,42.9915501 7.20433218,45.4607152 C8.64109358,47.9298803 9.37178938,49.180979 9.39641958,49.2140113 C9.45389003,49.3131082 9.55241081,49.3626567 9.69198192,49.3626567 L9.7905027,49.3626567 L9.99985937,49.3626567 C10.0491198,49.288334 10.07375,49.2470436 10.07375,49.2387855 L10.4185727,45.2377471 C10.6484545,42.5703882 10.7716055,41.2243216 10.7880256,41.1995473 C10.8290759,41.1087085 11.0959031,41.0632891 11.588507,41.0632891 C11.7937586,41.0632891 11.8963844,41.0219987 11.8963844,40.9394179 C11.8963844,40.9229017 11.8840693,40.8650952 11.8594391,40.7659983 C11.8348089,40.6421271 11.8142838,40.5678044 11.7978636,40.5430302 C11.7814435,40.518256 11.723973,40.5017398 11.6254523,40.4934817 C11.6008221,40.4934817 11.5433516,40.4934817 11.4530409,40.4934817 C11.3627302,40.4934817 11.2026339,40.4976108 10.9727521,40.5058688 C10.7428703,40.5141269 10.4432029,40.518256 10.07375,40.518256 C9.30200383,40.518256 8.79708482,40.5099979 8.55899293,40.4934817 L8.41121176,40.4934817 C8.36195137,40.5430302 8.33732117,40.5801915 8.33732117,40.6049658 C8.33732117,40.62974 8.34553124,40.7040627 8.36195137,40.8279339 C8.39479163,40.9352889 8.41942182,41.0013535 8.43584195,41.0261277 L8.48510234,41.0632891 L8.7314043,41.0632891 C9.17474782,41.0880633 9.4374699,41.1582569 9.51957055,41.27387 L9.37178938,43.1319374 L6.44079612,43.1319374 L6.02208279,42.4134847 C5.68547012,41.8436774 5.51716379,41.5092252 5.51716379,41.4101283 Z M9.31021389,43.7141319 C9.31021389,43.8049707 9.2609535,44.4491007 9.16243272,45.6465219 C9.06391194,46.8439431 9.00644148,47.4467828 8.99002135,47.4550408 L8.65751371,46.9223949 C8.52615267,46.6994268 8.26753562,46.2576196 7.88166255,45.5969735 L6.77330376,43.7141319 L8.04175882,43.7017447 C8.88739554,43.7017447 9.31021389,43.7058738 9.31021389,43.7141319 Z" id="E1-MJMATHI-41" stroke="#F59E01" stroke-width="0.5"></path>
                                <path d="M18.8420995,47.8142672 C18.89957,47.8720737 18.9611455,47.900977 19.026826,47.900977 C19.1171367,47.900977 19.1787122,47.8720737 19.2115525,47.8142672 C19.2197625,47.8060091 19.4906947,47.2031695 20.0243489,46.0057483 C20.5580032,44.8083271 21.0957624,43.5943897 21.6376267,42.3639362 C22.179491,41.1334827 22.4504232,40.4934817 22.4504232,40.4439333 C22.4340031,40.2952879 22.3519024,40.2209652 22.2041212,40.2209652 C22.179491,40.2209652 22.1589659,40.2250942 22.1425457,40.2333523 C22.1261256,40.2416104 22.1056004,40.2457394 22.0809702,40.2457394 C22.0563401,40.2457394 22.0399199,40.2581265 22.0317099,40.2829008 C22.0234998,40.307675 22.0152897,40.3241911 22.0070797,40.3324492 C21.9988696,40.3407073 21.9865545,40.3572235 21.9701344,40.3819977 C21.9537142,40.4067719 21.9455042,40.4274171 21.9455042,40.4439333 L19.026826,47.0338789 L16.1081478,40.4439333 C16.0342573,40.311804 15.9685767,40.2416104 15.9111063,40.2333523 C15.8946862,40.2250942 15.874161,40.2209652 15.8495308,40.2209652 C15.7017496,40.2209652 15.619649,40.2952879 15.6032288,40.4439333 C15.6032288,40.4934817 15.870056,41.1293537 16.4037102,42.3515491 C16.9373644,43.5737445 17.4751237,44.7876819 18.016988,45.9933612 C18.5588523,47.1990404 18.8338895,47.8060091 18.8420995,47.8142672 Z" id="E1-MJMAIN-2227" stroke="#F59E01" stroke-width="0.5"></path>
                                <path d="M28.731123,48.3840745 C28.5094513,48.3840745 28.3780902,48.3882036 28.3370399,48.3964616 C28.2959896,48.4047197 28.2754644,48.4501391 28.2754644,48.5327199 C28.2754644,48.755688 28.3206198,48.8919463 28.4109305,48.9414947 C28.4191406,48.9497528 28.9527948,48.9538819 30.0118932,48.9538819 C32.1383001,48.9538819 33.258974,48.9456238 33.3739149,48.9291076 C33.891149,48.8465269 34.3221774,48.6607201 34.6670001,48.3716874 C35.0118229,48.0826547 35.1883393,47.7027832 35.1965493,47.2320728 C35.1965493,46.7035558 34.9584575,46.2287164 34.4822737,45.8075544 C34.0060899,45.3863925 33.4601206,45.1014888 32.8443657,44.9528434 L32.7212147,44.9156821 C33.2466589,44.8413594 33.6776873,44.6514236 34.0143,44.3458748 C34.3509126,44.0403259 34.523324,43.6604544 34.5315341,43.2062601 C34.5315341,42.6034205 34.2359717,42.021226 33.644847,41.4596768 C33.0537223,40.8981275 32.3271316,40.5801915 31.4650747,40.5058688 C31.4076043,40.4976108 30.5414424,40.4934817 28.8665891,40.4934817 C27.2245761,40.4934817 26.3912545,40.5017398 26.3666243,40.518256 C26.333784,40.5430302 26.3173639,40.5760625 26.3173639,40.6173529 C26.3173639,40.6751594 26.3255739,40.732966 26.3419941,40.7907725 C26.3830444,40.947676 26.4240947,41.0343858 26.465145,41.0509019 C26.4979853,41.05916 26.5595608,41.0632891 26.6498715,41.0632891 L26.7237621,41.0632891 C26.9454339,41.0632891 27.1917358,41.0756762 27.462668,41.1004504 C27.5776089,41.1252246 27.6556045,41.1747731 27.6966548,41.2490958 C27.721285,41.2821281 28.0168474,42.4300008 28.5833419,44.692714 C29.1498364,46.9554272 29.4330836,48.1487193 29.4330836,48.2725905 C29.4330836,48.330397 29.1990967,48.3675584 28.731123,48.3840745 Z M33.8788339,47.2320728 C33.8788339,47.4798151 33.8172584,47.7110412 33.6941074,47.9257512 C33.5709564,48.1404613 33.3698098,48.2808486 33.0906676,48.3469132 C33.0331972,48.3634293 32.6555342,48.3758165 31.9576786,48.3840745 C31.7934773,48.3840745 31.621066,48.3840745 31.4404445,48.3840745 C31.2598231,48.3840745 31.116147,48.3799455 31.0094161,48.3716874 L30.8493198,48.3716874 C30.7261689,48.3634293 30.6481732,48.322139 30.615333,48.2478163 C30.5989129,48.2147839 30.4675518,47.7192993 30.2212499,46.7613624 C30.2212499,46.7365881 30.2171448,46.7118139 30.2089348,46.6870397 L29.8271667,45.1262631 L30.8246896,45.1262631 C31.4897049,45.1262631 31.871473,45.1345211 31.9699937,45.1510373 C32.4625976,45.2336181 32.9018361,45.4731023 33.2877092,45.86949 C33.6735823,46.2658777 33.8706238,46.720072 33.8788339,47.2320728 Z M33.2138186,43.3301313 C33.2138186,43.6934867 33.1194029,43.9949065 32.9305714,44.2343907 C32.7417399,44.473875 32.4954379,44.6142623 32.1916655,44.6555527 C32.1424051,44.6638107 31.8016874,44.6679398 31.1695124,44.6679398 C30.2007247,44.6679398 29.7122258,44.6638107 29.7040157,44.6555527 C29.7040157,44.6390365 29.6342302,44.3376167 29.4946591,43.7512932 C29.355088,43.1649697 29.2114118,42.5827753 29.0636307,42.0047099 L28.8419589,41.1376118 C28.8419589,41.1045794 28.8912193,41.0880633 28.9897401,41.0880633 C29.0882609,41.0880633 29.4207685,41.0798052 29.987263,41.0632891 C30.7179588,41.0632891 31.1120419,41.0674181 31.1695124,41.0756762 C31.6785364,41.1334827 32.1465101,41.372967 32.5734335,41.7941289 C33.0003569,42.2152908 33.2138186,42.7272916 33.2138186,43.3301313 Z" id="E1-MJMATHI-42" stroke="#F59E01" stroke-width="0.5"></path>
                                <path d="M38.6447767,45.7208446 C39.0799102,45.7538769 39.4165228,45.9851031 39.6546147,46.4145231 C39.8927066,46.8439431 40.0240677,47.3476858 40.0486979,47.9257512 L40.0486979,48.111558 L40.5413018,48.111558 L40.5413018,45.8323287 L42.20384,45.8323287 L42.20384,45.2625213 L40.5413018,45.2625213 L40.5413018,43.4787767 C40.5495118,42.446517 40.5536169,41.8643226 40.5536169,41.7321933 C40.5536169,41.6000641 40.5823521,41.4679348 40.6398225,41.3358056 C40.7547635,41.0137406 40.9559101,40.8527081 41.2432623,40.8527081 C41.6045052,40.8527081 41.826177,41.1458698 41.9082776,41.7321933 C41.9164877,41.7982579 41.9205927,41.9881937 41.9205927,42.3020006 L41.9205927,42.7355497 L42.4131966,42.7355497 L42.4131966,42.3020006 L42.4131966,42.1533553 C42.4131966,41.5174833 42.2407852,41.0343858 41.8959625,40.7040627 C41.6742908,40.4810946 41.3869385,40.3696106 41.0339057,40.3696106 C40.7547635,40.3696106 40.5125665,40.419159 40.3073149,40.518256 C40.1020633,40.6173529 39.946072,40.7453531 39.8393412,40.9022566 C39.7326103,41.05916 39.6546147,41.2036764 39.6053543,41.3358056 C39.5560939,41.4679348 39.5273587,41.6000641 39.5191486,41.7321933 C39.5109386,41.7899999 39.5068336,42.4010976 39.5068336,43.5654865 L39.5068336,45.2625213 L38.5339408,45.2625213 L38.5339408,45.7208446 L38.6447767,45.7208446 Z" id="E1-MJMAIN-74" stroke="#F59E01" stroke-width="0.5"></path>
                                <path d="M43.5461856,41.0632891 L43.718597,41.0632891 C44.0387895,41.0632891 44.2317261,41.1210956 44.2974066,41.2367087 L44.2974066,41.3358056 C44.2974066,41.4101283 44.2974066,41.5050962 44.2974066,41.6207093 C44.2974066,41.7363224 44.3015116,41.8643226 44.3097217,42.0047099 C44.3179317,42.1450972 44.3179317,42.3061297 44.3097217,42.4878074 C44.3015116,42.6694851 44.3015116,42.8429047 44.3097217,43.0080663 C44.3097217,43.2640666 44.3097217,43.5365832 44.3097217,43.8256159 C44.3097217,44.1146486 44.3097217,44.3582619 44.3097217,44.5564557 L44.2974066,44.8413594 C44.2727764,44.9982629 44.2153059,45.1014888 44.1249952,45.1510373 C44.0346845,45.2005858 43.849958,45.2377471 43.5708158,45.2625213 L43.349144,45.2625213 L43.349144,45.547425 C43.349144,45.7373608 43.3573541,45.8323287 43.3737742,45.8323287 L43.4969252,45.8447158 C43.5790259,45.8529739 43.6939668,45.8612319 43.841748,45.86949 C43.9895291,45.8777481 44.1373103,45.8860062 44.2850915,45.8942642 C44.4164525,45.9025223 44.5601287,45.9107804 44.7161199,45.9190385 C44.8721111,45.9272966 44.9911571,45.9396837 45.0732577,45.9561998 C45.1553584,45.972716 45.2005137,45.976845 45.2087238,45.9685869 L45.2456691,45.9685869 L45.2456691,45.1138759 C45.5658616,45.6754252 45.9640498,45.9561998 46.4402336,45.9561998 L46.5141242,45.9561998 C46.8835771,45.9561998 47.1545092,45.865361 47.3269206,45.6836833 C47.499332,45.5020056 47.5855377,45.3120698 47.5855377,45.1138759 C47.5855377,44.9404563 47.5321722,44.7918109 47.4254414,44.6679398 C47.3187106,44.5440686 47.1627193,44.482133 46.9574677,44.482133 C46.7522161,44.482133 46.6003298,44.5481977 46.5018091,44.6803269 C46.4032883,44.8124561 46.3499229,44.9528434 46.3417128,45.1014888 C46.3417128,45.1758115 46.3499229,45.2418761 46.366343,45.2996827 C46.3827631,45.3574892 46.4032883,45.4070377 46.4279185,45.4483281 C46.4525487,45.4896185 46.4648638,45.5102637 46.4648638,45.5102637 C46.4484436,45.5267798 46.3540279,45.5102637 46.1816165,45.4607152 C46.0502555,45.3946506 45.9517347,45.332715 45.8860542,45.2749085 C45.5001811,44.903295 45.3072446,44.1641971 45.3072446,43.0576147 L45.3072446,42.4010976 C45.3072446,42.2937426 45.3072446,42.1822585 45.3072446,42.0666454 C45.3072446,41.9510324 45.3072446,41.8436774 45.3072446,41.7445804 C45.3072446,41.6454835 45.3113496,41.5629027 45.3195597,41.4968381 C45.3277697,41.4307735 45.3277697,41.3688379 45.3195597,41.3110314 L45.3195597,41.2490958 C45.3277697,41.2325796 45.3400848,41.2160635 45.356505,41.1995473 C45.3729251,41.1830312 45.3934503,41.1706441 45.4180805,41.162386 C45.4427107,41.1541279 45.4632358,41.1417408 45.479656,41.1252246 C45.4960761,41.1087085 45.5248113,41.1004504 45.5658616,41.1004504 C45.606912,41.1004504 45.6356472,41.0963214 45.6520673,41.0880633 C45.6684875,41.0798052 45.7054327,41.0756762 45.7629032,41.0756762 C45.8203737,41.0756762 45.857319,41.0756762 45.8737391,41.0756762 C45.8901592,41.0756762 45.9312095,41.0715471 45.9968901,41.0632891 C46.0625706,41.055031 46.1036209,41.055031 46.120041,41.0632891 L46.5018091,41.0632891 L46.5018091,40.4934817 L46.3909732,40.4934817 C46.243192,40.518256 45.7218529,40.5306431 44.8269558,40.5306431 C43.9813191,40.5306431 43.5215554,40.518256 43.4476648,40.4934817 L43.349144,40.4934817 L43.349144,41.0632891 L43.5461856,41.0632891 Z" id="E1-MJMAIN-72" stroke="#F59E01" stroke-width="0.5"></path>
                                <path d="M52.6593579,41.2119345 C52.1995943,40.6503852 51.6782552,40.3696106 51.0953405,40.3696106 L51.0091348,40.3696106 C49.9828767,40.3696106 49.391752,40.7783854 49.2357608,41.595935 C49.2275507,41.6537416 49.2193406,42.2194199 49.2111306,43.2929699 C49.2029205,44.1931003 49.1988155,44.696843 49.1988155,44.804198 C49.1988155,44.9115531 49.1741853,44.9982629 49.1249249,45.0643275 C49.0428242,45.1964567 48.7965223,45.2625213 48.386019,45.2625213 L48.2505529,45.2625213 L48.2505529,45.547425 C48.2505529,45.7373608 48.258763,45.8323287 48.2751831,45.8323287 L48.4106492,45.8447158 C48.4927499,45.8529739 48.6117958,45.8612319 48.7677871,45.86949 C48.9237783,45.8777481 49.0797695,45.8860062 49.2357608,45.8942642 C49.3753319,45.9025223 49.5272181,45.9107804 49.6914194,45.9190385 C49.8556207,45.9272966 49.9787717,45.9396837 50.0608723,45.9561998 C50.142973,45.972716 50.1922334,45.976845 50.2086535,45.9685869 L50.2455988,45.9685869 L50.2455988,43.726519 C50.2538088,42.2070328 50.2661239,41.3936122 50.2825441,41.2862571 C50.3071743,41.162386 50.3646447,41.0632891 50.4549554,40.9889664 C50.6191567,40.8733533 50.8654587,40.8155467 51.1938613,40.8155467 C51.407323,40.8155467 51.6002595,40.8527081 51.7726709,40.9270308 C51.9450823,41.0013535 52.0764433,41.0963214 52.166754,41.2119345 C52.2570647,41.3275475 52.3391654,41.4596768 52.413056,41.6083222 C52.4869466,41.7569675 52.536207,41.8808387 52.5608372,41.9799356 C52.5854674,42.0790326 52.6018875,42.1781295 52.6100975,42.2772264 C52.6100975,42.2854845 52.6100975,42.3556781 52.6100975,42.4878074 C52.6100975,42.6199366 52.6142026,42.7850982 52.6224126,42.983292 C52.6306227,43.1814859 52.6306227,43.3755507 52.6224126,43.5654865 L52.6224126,44.3954232 C52.6224126,44.7752948 52.5813623,45.01065 52.4992617,45.1014888 C52.417161,45.1923277 52.2119094,45.2460052 51.8835068,45.2625213 L51.661835,45.2625213 L51.661835,45.8323287 C51.6782552,45.8323287 51.9902376,45.8529739 52.5977824,45.8942642 C53.2053273,45.9355546 53.5296248,45.9603289 53.5706752,45.9685869 L53.6568809,45.9685869 L53.6568809,43.7636803 C53.6568809,42.2772264 53.6609859,41.5216123 53.669196,41.4968381 C53.6938261,41.3316766 53.7512966,41.2243216 53.8416073,41.1747731 C53.931918,41.1252246 54.1166445,41.0880633 54.3957867,41.0632891 L54.6174585,41.0632891 L54.6174585,40.4934817 C54.6010383,40.4934817 54.2931609,40.4728365 53.6938261,40.4315462 C53.0944914,40.3902558 52.7784039,40.3654815 52.7455636,40.3572235 L52.6593579,40.3572235 L52.6593579,41.2119345 Z" id="E1-MJMAIN-75" stroke="#F59E01" stroke-width="0.5"></path>
                                <path d="M55.1346926,43.193873 C55.1346926,43.6480672 55.2167932,44.0609711 55.3809945,44.4325846 C55.5451958,44.804198 55.7504475,45.1056179 55.9967494,45.336844 C56.2430514,45.5680702 56.5098785,45.7414898 56.7972308,45.8571029 C57.0845831,45.972716 57.3555152,46.0346516 57.6100272,46.0429096 C58.0451607,46.0429096 58.4187186,45.9685869 58.7307011,45.8199415 C59.0426836,45.6712962 59.2807755,45.4648442 59.4449768,45.2005858 C59.6091781,44.9363273 59.724119,44.6720688 59.7897995,44.4078103 C59.85548,44.1435519 59.8924253,43.8503901 59.9006354,43.5283251 C59.9006354,43.4705186 59.8719002,43.412712 59.8144297,43.3549055 L56.3415722,43.3549055 L56.3415722,43.1690988 C56.3415722,41.9469033 56.7520754,41.2036764 57.5730819,40.9394179 C57.7372832,40.8898694 57.9179047,40.8650952 58.1149462,40.8650952 C58.459769,40.8650952 58.7553313,40.9972244 59.0016333,41.2614829 C59.1412044,41.4018702 59.2520403,41.5752899 59.3341409,41.7817418 L59.4572919,42.0790326 C59.4819221,42.1038068 59.5476026,42.1161939 59.6543335,42.1161939 L59.6912787,42.1161939 C59.8308499,42.1161939 59.9006354,42.0749035 59.9006354,41.9923228 C59.9006354,41.9592904 59.8883203,41.9056129 59.8636901,41.8312902 C59.7076989,41.377096 59.4490818,41.0178696 59.087839,40.7536112 C58.7265961,40.4893527 58.3201979,40.3572235 57.8686443,40.3572235 C57.0886881,40.3572235 56.4400929,40.6421271 55.9228588,41.2119345 C55.4056247,41.7817418 55.1429026,42.442388 55.1346926,43.193873 Z M58.8907974,43.8999386 C58.8004867,44.9569725 58.4105086,45.5185217 57.7208631,45.5845863 L57.6962329,45.5845863 C57.6305524,45.5845863 57.5648719,45.5804573 57.4991913,45.5721992 C57.4335108,45.5639412 57.330885,45.5309088 57.1913139,45.4731023 C57.0517428,45.4152958 56.9326969,45.328586 56.8341761,45.2129729 C56.7356553,45.0973598 56.6412395,44.9280692 56.5509288,44.7051011 C56.4606181,44.482133 56.3949376,44.2096165 56.3538873,43.8875515 L56.3538873,43.8008417 L58.8907974,43.8008417 L58.8907974,43.8999386 Z" id="E1-MJMAIN-65" stroke="#F59E01" stroke-width="0.5"></path>
                                <path d="M17.265767,29.1964321 C17.0440953,29.1964321 16.9127342,29.2005611 16.8716839,29.2088192 C16.8306336,29.2170773 16.8101084,29.2624967 16.8101084,29.3450775 C16.8101084,29.5680455 16.8552638,29.7043038 16.9455745,29.7538523 C16.9537846,29.7621104 17.4874388,29.7662394 18.5465372,29.7662394 C20.6729441,29.7662394 21.793618,29.7579813 21.9085589,29.7414652 C22.425793,29.6588844 22.8568214,29.4730777 23.2016441,29.184045 C23.5464669,28.8950123 23.7229833,28.5151407 23.7311933,28.0444303 C23.7311933,27.5159134 23.4931015,27.0410739 23.0169177,26.619912 C22.5407339,26.19875 21.9947646,25.9138464 21.3790097,25.765201 L21.2558587,25.7280396 C21.7813029,25.6537169 22.2123313,25.4637812 22.548944,25.1582323 C22.8855566,24.8526834 23.057968,24.4728119 23.0661781,24.0186176 C23.0661781,23.415778 22.7706157,22.8335836 22.179491,22.2720343 C21.5883663,21.7104851 20.8617756,21.3925491 19.9997187,21.3182264 C19.9422483,21.3099683 19.0760864,21.3058393 17.4012331,21.3058393 C15.7592201,21.3058393 14.9258985,21.3140973 14.9012683,21.3306135 C14.868428,21.3553877 14.8520079,21.38842 14.8520079,21.4297104 C14.8520079,21.487517 14.8602179,21.5453235 14.8766381,21.6031301 C14.9176884,21.7600335 14.9587387,21.8467433 14.999789,21.8632595 C15.0326293,21.8715176 15.0942048,21.8756466 15.1845155,21.8756466 L15.2584061,21.8756466 C15.4800779,21.8756466 15.7263798,21.8880337 15.997312,21.9128079 C16.1122529,21.9375822 16.1902485,21.9871306 16.2312988,22.0614533 C16.255929,22.0944856 16.5514914,23.2423584 17.1179859,25.5050715 C17.6844804,27.7677847 17.9677276,28.9610769 17.9677276,29.084948 C17.9677276,29.1427546 17.7337407,29.1799159 17.265767,29.1964321 Z M22.4134779,28.0444303 C22.4134779,28.2921726 22.3519024,28.5233988 22.2287514,28.7381088 C22.1056004,28.9528188 21.9044538,29.0932061 21.6253116,29.1592707 C21.5678412,29.1757869 21.1901782,29.188174 20.4923226,29.1964321 C20.3281213,29.1964321 20.15571,29.1964321 19.9750885,29.1964321 C19.7944671,29.1964321 19.650791,29.192303 19.5440601,29.184045 L19.3839638,29.184045 C19.2608129,29.1757869 19.1828172,29.1344965 19.149977,29.0601738 C19.1335569,29.0271415 19.0021958,28.5316569 18.7558939,27.5737199 C18.7558939,27.5489457 18.7517888,27.5241714 18.7435788,27.4993972 L18.3618107,25.9386206 L19.3593336,25.9386206 C20.0243489,25.9386206 20.406117,25.9468787 20.5046377,25.9633948 C20.9972416,26.0459756 21.4364801,26.2854598 21.8223532,26.6818476 C22.2082263,27.0782353 22.4052678,27.5324295 22.4134779,28.0444303 Z M21.7484626,24.1424888 C21.7484626,24.5058442 21.6540469,24.807264 21.4652154,25.0467483 C21.2763839,25.2862325 21.0300819,25.4266198 20.7263095,25.4679102 C20.6770491,25.4761683 20.3363314,25.4802973 19.7041564,25.4802973 C18.7353687,25.4802973 18.2468698,25.4761683 18.2386598,25.4679102 C18.2386598,25.451394 18.1688742,25.1499742 18.0293031,24.5636507 C17.889732,23.9773273 17.7460558,23.3951328 17.5982747,22.8170674 L17.3766029,21.9499693 C17.3766029,21.916937 17.4258633,21.9004208 17.5243841,21.9004208 C17.6229049,21.9004208 17.9554125,21.8921628 18.521907,21.8756466 C19.2526028,21.8756466 19.6466859,21.8797756 19.7041564,21.8880337 C20.2131804,21.9458403 20.6811541,22.1853245 21.1080775,22.6064864 C21.5350009,23.0276484 21.7484626,23.5396492 21.7484626,24.1424888 Z" id="E1-MJMATHI-42" stroke="#F59E01" stroke-width="0.5"></path>
                                <path d="M27.1794207,26.5332022 C27.6145542,26.5662345 27.9511668,26.7974606 28.1892587,27.2268807 C28.4273506,27.6563007 28.5587117,28.1600434 28.5833419,28.7381088 L28.5833419,28.9239155 L29.0759458,28.9239155 L29.0759458,26.6446862 L30.738484,26.6446862 L30.738484,26.0748789 L29.0759458,26.0748789 L29.0759458,24.2911342 C29.0841558,23.2588745 29.0882609,22.6766801 29.0882609,22.5445509 C29.0882609,22.4124216 29.1169961,22.2802924 29.1744665,22.1481631 C29.2894075,21.8260981 29.4905541,21.6650656 29.7779063,21.6650656 C30.1391492,21.6650656 30.360821,21.9582274 30.4429216,22.5445509 C30.4511317,22.6106155 30.4552367,22.8005513 30.4552367,23.1143582 L30.4552367,23.5479072 L30.9478406,23.5479072 L30.9478406,23.1143582 L30.9478406,22.9657128 C30.9478406,22.3298408 30.7754293,21.8467433 30.4306065,21.5164202 C30.2089348,21.2934522 29.9215825,21.1819681 29.5685497,21.1819681 C29.2894075,21.1819681 29.0472105,21.2315166 28.8419589,21.3306135 C28.6367073,21.4297104 28.480716,21.5577106 28.3739852,21.7146141 C28.2672543,21.8715176 28.1892587,22.0160339 28.1399983,22.1481631 C28.0907379,22.2802924 28.0620027,22.4124216 28.0537927,22.5445509 C28.0455826,22.6023574 28.0414776,23.2134551 28.0414776,24.377844 L28.0414776,26.0748789 L27.0685848,26.0748789 L27.0685848,26.5332022 L27.1794207,26.5332022 Z" id="E1-MJMAIN-74" stroke="#F59E01" stroke-width="0.5"></path>
                                <path d="M32.0808296,21.8756466 L32.253241,21.8756466 C32.5734335,21.8756466 32.7663701,21.9334531 32.8320506,22.0490662 L32.8320506,22.1481631 C32.8320506,22.2224858 32.8320506,22.3174537 32.8320506,22.4330668 C32.8320506,22.5486799 32.8361556,22.6766801 32.8443657,22.8170674 C32.8525757,22.9574547 32.8525757,23.1184872 32.8443657,23.3001649 C32.8361556,23.4818426 32.8361556,23.6552622 32.8443657,23.8204238 C32.8443657,24.0764242 32.8443657,24.3489407 32.8443657,24.6379734 C32.8443657,24.9270061 32.8443657,25.1706194 32.8443657,25.3688133 L32.8320506,25.6537169 C32.8074204,25.8106204 32.7499499,25.9138464 32.6596392,25.9633948 C32.5693285,26.0129433 32.384602,26.0501046 32.1054598,26.0748789 L31.883788,26.0748789 L31.883788,26.3597825 C31.883788,26.5497183 31.8919981,26.6446862 31.9084182,26.6446862 L32.0315692,26.6570733 C32.1136699,26.6653314 32.2286108,26.6735895 32.376392,26.6818476 C32.5241731,26.6901056 32.6719543,26.6983637 32.8197355,26.7066218 C32.9510965,26.7148799 33.0947727,26.7231379 33.2507639,26.731396 C33.4067551,26.7396541 33.5258011,26.7520412 33.6079017,26.7685574 C33.6900024,26.7850735 33.7351577,26.7892026 33.7433678,26.7809445 L33.7803131,26.7809445 L33.7803131,25.9262335 C34.1005056,26.4877827 34.4986938,26.7685574 34.9748776,26.7685574 L35.0487682,26.7685574 C35.4182211,26.7685574 35.6891533,26.6777185 35.8615646,26.4960408 C36.033976,26.3143631 36.1201817,26.1244273 36.1201817,25.9262335 C36.1201817,25.7528139 36.0668162,25.6041685 35.9600854,25.4802973 C35.8533546,25.3564262 35.6973633,25.2944906 35.4921117,25.2944906 C35.2868601,25.2944906 35.1349739,25.3605552 35.0364531,25.4926844 C34.9379323,25.6248137 34.8845669,25.765201 34.8763568,25.9138464 C34.8763568,25.9881691 34.8845669,26.0542337 34.900987,26.1120402 C34.9174071,26.1698468 34.9379323,26.2193952 34.9625625,26.2606856 C34.9871927,26.301976 34.9995078,26.3226212 34.9995078,26.3226212 C34.9830876,26.3391373 34.8886719,26.3226212 34.7162605,26.2730727 C34.5848995,26.2070081 34.4863787,26.1450725 34.4206982,26.087266 C34.0348251,25.7156525 33.8418886,24.9765546 33.8418886,23.8699723 L33.8418886,23.2134551 C33.8418886,23.1061001 33.8418886,22.9946161 33.8418886,22.879003 C33.8418886,22.7633899 33.8418886,22.6560349 33.8418886,22.556938 C33.8418886,22.457841 33.8459936,22.3752603 33.8542037,22.3091957 C33.8624138,22.243131 33.8624138,22.1811955 33.8542037,22.1233889 L33.8542037,22.0614533 C33.8624138,22.0449372 33.8747289,22.028421 33.891149,22.0119049 C33.9075691,21.9953887 33.9280943,21.9830016 33.9527245,21.9747435 C33.9773547,21.9664855 33.9978798,21.9540983 34.0143,21.9375822 C34.0307201,21.921066 34.0594553,21.9128079 34.1005056,21.9128079 C34.141556,21.9128079 34.1702912,21.9086789 34.1867113,21.9004208 C34.2031315,21.8921628 34.2400768,21.8880337 34.2975472,21.8880337 C34.3550177,21.8880337 34.391963,21.8880337 34.4083831,21.8880337 C34.4248032,21.8880337 34.4658535,21.8839047 34.5315341,21.8756466 C34.5972146,21.8673885 34.6382649,21.8673885 34.654685,21.8756466 L35.0364531,21.8756466 L35.0364531,21.3058393 L34.9256172,21.3058393 C34.777836,21.3306135 34.2564969,21.3430006 33.3615998,21.3430006 C32.5159631,21.3430006 32.0561994,21.3306135 31.9823088,21.3058393 L31.883788,21.3058393 L31.883788,21.8756466 L32.0808296,21.8756466 Z" id="E1-MJMAIN-72" stroke="#F59E01" stroke-width="0.5"></path>
                                <path d="M41.1940019,22.024292 C40.7342383,21.4627427 40.2128992,21.1819681 39.6299845,21.1819681 L39.5437788,21.1819681 C38.5175207,21.1819681 37.926396,21.5907429 37.7704048,22.4082926 C37.7621947,22.4660991 37.7539846,23.0317774 37.7457746,24.1053275 C37.7375645,25.0054579 37.7334595,25.5092006 37.7334595,25.6165556 C37.7334595,25.7239106 37.7088293,25.8106204 37.6595689,25.876685 C37.5774682,26.0088143 37.3311663,26.0748789 36.920663,26.0748789 L36.7851969,26.0748789 L36.7851969,26.3597825 C36.7851969,26.5497183 36.793407,26.6446862 36.8098271,26.6446862 L36.9452932,26.6570733 C37.0273939,26.6653314 37.1464398,26.6735895 37.3024311,26.6818476 C37.4584223,26.6901056 37.6144135,26.6983637 37.7704048,26.7066218 C37.9099759,26.7148799 38.0618621,26.7231379 38.2260634,26.731396 C38.3902647,26.7396541 38.5134157,26.7520412 38.5955163,26.7685574 C38.677617,26.7850735 38.7268774,26.7892026 38.7432975,26.7809445 L38.7802428,26.7809445 L38.7802428,24.5388765 C38.7884528,23.0193903 38.8007679,22.2059697 38.8171881,22.0986147 C38.8418183,21.9747435 38.8992887,21.8756466 38.9895994,21.8013239 C39.1538007,21.6857108 39.4001027,21.6279043 39.7285053,21.6279043 C39.941967,21.6279043 40.1349035,21.6650656 40.3073149,21.7393883 C40.4797263,21.813711 40.6110873,21.9086789 40.701398,22.024292 C40.7917087,22.1399051 40.8738094,22.2720343 40.9477,22.4206797 C41.0215906,22.5693251 41.070851,22.6931962 41.0954812,22.7922932 C41.1201114,22.8913901 41.1365315,22.990487 41.1447415,23.089584 C41.1447415,23.097842 41.1447415,23.1680357 41.1447415,23.3001649 C41.1447415,23.4322942 41.1488466,23.5974557 41.1570566,23.7956496 C41.1652667,23.9938434 41.1652667,24.1879082 41.1570566,24.377844 L41.1570566,25.2077808 C41.1570566,25.5876523 41.1160063,25.8230075 41.0339057,25.9138464 C40.951805,26.0046852 40.7465534,26.0583627 40.4181508,26.0748789 L40.196479,26.0748789 L40.196479,26.6446862 C40.2128992,26.6446862 40.5248816,26.6653314 41.1324265,26.7066218 C41.7399713,26.7479122 42.0642688,26.7726864 42.1053192,26.7809445 L42.1915249,26.7809445 L42.1915249,24.5760379 C42.1915249,23.089584 42.1956299,22.3339699 42.20384,22.3091957 C42.2284702,22.1440341 42.2859406,22.0366791 42.3762513,21.9871306 C42.466562,21.9375822 42.6512885,21.9004208 42.9304307,21.8756466 L43.1521025,21.8756466 L43.1521025,21.3058393 C43.1356824,21.3058393 42.8278049,21.2851941 42.2284702,21.2439037 C41.6291354,21.2026133 41.3130479,21.1778391 41.2802076,21.169581 L41.1940019,21.169581 L41.1940019,22.024292 Z" id="E1-MJMAIN-75" stroke="#F59E01" stroke-width="0.5"></path>
                                <path d="M43.6693366,24.0062305 C43.6693366,24.4604248 43.7514372,24.8733286 43.9156385,25.2449421 C44.0798398,25.6165556 44.2850915,25.9179754 44.5313934,26.1492016 C44.7776954,26.3804277 45.0445225,26.5538474 45.3318748,26.6694604 C45.6192271,26.7850735 45.8901592,26.8470091 46.1446712,26.8552672 C46.5798047,26.8552672 46.9533627,26.7809445 47.2653451,26.6322991 C47.5773276,26.4836537 47.8154195,26.2772018 47.9796208,26.0129433 C48.1438221,25.7486848 48.258763,25.4844264 48.3244435,25.2201679 C48.3901241,24.9559094 48.4270693,24.6627477 48.4352794,24.3406827 C48.4352794,24.2828761 48.4065442,24.2250696 48.3490737,24.167263 L44.8762162,24.167263 L44.8762162,23.9814563 C44.8762162,22.7592609 45.2867194,22.0160339 46.1077259,21.7517754 C46.2719272,21.702227 46.4525487,21.6774527 46.6495902,21.6774527 C46.994413,21.6774527 47.2899753,21.809582 47.5362773,22.0738405 C47.6758484,22.2142278 47.7866843,22.3876474 47.8687849,22.5940993 L47.9919359,22.8913901 C48.0165661,22.9161643 48.0822466,22.9285514 48.1889775,22.9285514 L48.2259228,22.9285514 C48.3654939,22.9285514 48.4352794,22.8872611 48.4352794,22.8046803 C48.4352794,22.771648 48.4229643,22.7179705 48.3983341,22.6436478 C48.2423429,22.1894535 47.9837258,21.8302272 47.622483,21.5659687 C47.2612401,21.3017102 46.8548419,21.169581 46.4032883,21.169581 C45.6233321,21.169581 44.9747369,21.4544847 44.4575028,22.024292 C43.9402687,22.5940993 43.6775467,23.2547455 43.6693366,24.0062305 Z M47.4254414,24.7122961 C47.3351307,25.76933 46.9451526,26.3308793 46.2555071,26.3969439 L46.2308769,26.3969439 C46.1651964,26.3969439 46.0995159,26.3928148 46.0338354,26.3845568 C45.9681548,26.3762987 45.865529,26.3432664 45.7259579,26.2854598 C45.5863868,26.2276533 45.4673409,26.1409435 45.3688201,26.0253304 C45.2702993,25.9097173 45.1758835,25.7404267 45.0855728,25.5174587 C44.9952621,25.2944906 44.9295816,25.021974 44.8885313,24.699909 L44.8885313,24.6131992 L47.4254414,24.6131992 L47.4254414,24.7122961 Z" id="E1-MJMAIN-65" stroke="#F59E01" stroke-width="0.5"></path>
                                <path d="M72.2280482,38.598253 C72.2855187,38.6560595 72.3470942,38.6849628 72.4127747,38.6849628 C72.5030854,38.6849628 72.5646609,38.6560595 72.5975012,38.598253 C72.6057112,38.5899949 72.8766434,37.9871553 73.4102976,36.7897341 C73.9439519,35.5923129 74.4817111,34.3783755 75.0235754,33.147922 C75.5654397,31.9174685 75.8363719,31.2774675 75.8363719,31.2279191 C75.8199518,31.0792737 75.7378511,31.004951 75.5900699,31.004951 C75.5654397,31.004951 75.5449146,31.00908 75.5284944,31.0173381 C75.5120743,31.0255962 75.4915491,31.0297252 75.466919,31.0297252 C75.4422888,31.0297252 75.4258686,31.0421123 75.4176586,31.0668866 C75.4094485,31.0916608 75.4012384,31.108177 75.3930284,31.116435 C75.3848183,31.1246931 75.3725032,31.1412093 75.3560831,31.1659835 C75.3396629,31.1907577 75.3314529,31.2114029 75.3314529,31.2279191 L72.4127747,37.8178647 L69.4940965,31.2279191 C69.420206,31.0957898 69.3545254,31.0255962 69.297055,31.0173381 C69.2806349,31.00908 69.2601097,31.004951 69.2354795,31.004951 C69.0876983,31.004951 69.0055977,31.0792737 68.9891775,31.2279191 C68.9891775,31.2774675 69.2560047,31.9133395 69.7896589,33.1355349 C70.3233131,34.3577303 70.8610724,35.5716677 71.4029367,36.777347 C71.944801,37.9830263 72.2198382,38.5899949 72.2280482,38.598253 Z" id="E1-MJMAIN-2227" stroke="#F59E01" stroke-width="0.5"></path>
                                <path d="M80.8097502,31.2847883 C80.6936599,31.2847883 80.6356147,31.3227383 80.6356147,31.3986383 C80.6356147,31.4219921 80.650126,31.4920537 80.6791486,31.6088229 C80.7081712,31.7255921 80.7226825,31.8277652 80.7226825,31.9153421 C80.7226825,32.0963343 80.6617351,32.2072651 80.5398402,32.2481343 C80.4179454,32.2890035 80.1364264,32.3094382 79.6952831,32.3094382 L79.2425309,32.3094382 C79.2367264,32.2977612 79.1351473,31.8949075 78.9377938,31.1008768 C78.7404402,30.3068462 78.6417635,29.8981539 78.6417635,29.8748001 C78.6417635,29.8514462 78.6736883,29.8397693 78.737538,29.8397693 C78.8013877,29.8397693 79.0335683,29.8339309 79.4340799,29.8222539 C79.9797044,29.8222539 80.3395844,29.8280924 80.5137199,29.8397693 C80.6878554,29.8514462 80.8619909,29.8893962 81.0361263,29.9536193 C81.3205476,30.0470347 81.5556305,30.2105116 81.741375,30.44405 C81.9271196,30.6775884 82.1331799,31.0600076 82.359556,31.5913075 C82.4176012,31.7197536 82.4553305,31.7898152 82.4727441,31.8014921 C82.5133757,31.813169 82.5569096,31.8190075 82.6033457,31.8190075 C82.719436,31.8190075 82.7774812,31.7810575 82.7774812,31.7051575 C82.168007,30.2221885 81.8487586,29.4661078 81.819736,29.4369155 C81.8023225,29.4252386 80.9722767,29.4194002 79.3295986,29.4194002 L77.6840183,29.4194002 C77.0919577,29.4194002 76.7959274,29.4515117 76.7959274,29.5157348 C76.7959274,29.5274117 76.8046341,29.5682809 76.8220477,29.6383424 C76.8452657,29.7317578 76.8684838,29.7843039 76.8917019,29.7959809 C76.9149199,29.8076578 76.9816719,29.8164155 77.0919577,29.8222539 C77.2486796,29.8222539 77.4228151,29.8310116 77.6143641,29.848527 C77.6956273,29.8660424 77.7507702,29.9010732 77.7797928,29.9536193 C77.7914019,29.9828116 77.9974622,30.8031153 78.3979738,32.4145304 C78.7984854,34.0259456 79.0016435,34.8433301 79.007448,34.8666839 C79.007448,34.9075531 78.9958389,34.9279877 78.9726209,34.9279877 C78.9261848,34.9455031 78.7723651,34.9600993 78.5111619,34.9717762 L78.2412519,34.9717762 C78.2064248,35.006807 78.1890112,35.0301608 78.1890112,35.0418377 C78.1890112,35.0535146 78.1948157,35.1031416 78.2064248,35.1907185 C78.2296428,35.2899723 78.2586654,35.3512761 78.2934925,35.37463 L83.1170454,35.37463 C83.157677,35.3512761 83.1779928,35.3191646 83.1779928,35.2782954 C83.1779928,35.2491031 83.1402634,34.9221493 83.0648047,34.297434 C82.989346,33.6727187 82.9487144,33.3516034 82.9429099,33.334088 C82.9313008,33.2932188 82.8732557,33.2727842 82.7687744,33.2727842 L82.6642931,33.2727842 C82.6236615,33.3019765 82.6033457,33.3399265 82.6033457,33.3866341 L82.629466,33.588061 C82.6468796,33.7281841 82.6555863,33.8799841 82.6555863,34.043461 C82.6555863,34.2186148 82.6352705,34.3645763 82.5946389,34.4813455 C82.5540073,34.5981147 82.4988644,34.6886109 82.4292102,34.7528339 C82.359556,34.817057 82.257977,34.8637647 82.1244731,34.892957 C81.9909692,34.9221493 81.8545631,34.9425839 81.7152547,34.9542608 C81.5759463,34.9659377 81.3902018,34.9717762 81.1580212,34.9717762 L80.7488028,34.9717762 C80.2380054,34.9659377 79.9680954,34.95718 79.9390728,34.9455031 C79.9158547,34.9338262 79.8984412,34.9075531 79.8868322,34.8666839 C79.8810276,34.8491685 79.7910576,34.4901032 79.6169222,33.7894879 C79.4427867,33.0888726 79.3528167,32.7327266 79.3470122,32.7210496 C79.480516,32.7152112 79.6198244,32.7122919 79.7649373,32.7122919 L79.9913135,32.7122919 C80.3744115,32.7122919 80.638517,32.7560804 80.7836299,32.8436573 C80.9287428,32.9312342 81.0593444,33.1676919 81.1754347,33.5530303 C81.1986528,33.6464456 81.2160663,33.6989918 81.2276754,33.7106687 C81.2392844,33.7223456 81.2886228,33.7311033 81.3756905,33.7369418 C81.4047131,33.7369418 81.4279312,33.7369418 81.4453447,33.7369418 C81.4627583,33.7369418 81.4772696,33.7340225 81.4888786,33.7281841 C81.5004876,33.7223456 81.5062921,33.7194264 81.5062921,33.7194264 C81.5062921,33.7194264 81.5120967,33.7077495 81.5237057,33.6843956 C81.5353147,33.6610418 81.5440215,33.6493649 81.549826,33.6493649 L81.2625025,32.4933497 C81.0709534,31.7168344 80.9664721,31.3227383 80.9490586,31.3110614 C80.9316451,31.293546 80.8852089,31.2847883 80.8097502,31.2847883 Z" id="E1-MJMATHI-45" stroke="#F59E01" stroke-width="0.5"></path>
                                <path d="M84.1270311,33.1764496 C83.9703092,33.1764496 83.8455121,33.2289957 83.7526399,33.334088 C83.6597676,33.4391803 83.6133315,33.5676264 83.6133315,33.7194264 C83.6133315,34.1339571 83.7671512,34.4930224 84.0747905,34.7966224 C84.3824299,35.1002223 84.7655279,35.2520223 85.2240847,35.2520223 C85.7522956,35.2520223 86.1934389,35.0885454 86.5475143,34.7615916 C86.9015898,34.4346378 87.0815298,34.0113494 87.0873343,33.4917264 C87.0873343,33.2406726 87.0292892,33.0012957 86.9131989,32.7735958 C86.7971085,32.5458958 86.6578002,32.3473882 86.4952737,32.1780728 C86.3327473,32.0087574 86.1005666,31.7927344 85.7987318,31.5300037 C85.5897692,31.3490114 85.2995434,31.0804422 84.9280544,30.7242961 L84.4143547,30.2338654 L85.0760695,30.2251077 C85.9873785,30.2251077 86.4720556,30.2397039 86.5301008,30.2688962 C86.5707324,30.2805731 86.6403866,30.5403846 86.7390634,31.0483307 L86.7390634,31.0746037 L87.0873343,31.0746037 L87.0873343,31.0483307 C87.0815298,31.0308153 87.0438005,30.7651653 86.9741463,30.2513808 C86.9044921,29.7375963 86.8609582,29.4690271 86.8435447,29.4456732 L86.8435447,29.4194002 L83.6133315,29.4194002 L83.6133315,29.5857963 L83.6133315,29.6908886 C83.6133315,29.7317578 83.630745,29.7755463 83.6655721,29.8222539 C83.7003992,29.8689616 83.787467,29.9711347 83.9267753,30.1287731 C84.0951063,30.3156039 84.2402192,30.4790808 84.362114,30.6192038 C84.4143547,30.6775884 84.5130315,30.7855999 84.6581444,30.9432384 C84.8032573,31.1008768 84.901934,31.2088883 84.9541747,31.2672729 C85.0064153,31.3256575 85.0905808,31.4219921 85.2066711,31.5562767 C85.3227615,31.6905613 85.4040247,31.7898152 85.4504608,31.8540382 C85.4968969,31.9182613 85.5636489,32.0058382 85.6507166,32.116769 C85.7377844,32.2276997 85.7987318,32.3211151 85.8335589,32.3970151 C85.868386,32.4729151 85.9119198,32.5575727 85.9641605,32.6509881 C86.0164011,32.7444035 86.0541305,32.8378188 86.0773485,32.9312342 C86.1005666,33.0246496 86.1208824,33.1122265 86.138296,33.1939649 C86.1557095,33.2757034 86.1644163,33.372038 86.1644163,33.4829687 C86.1644163,33.8507918 86.0657395,34.1689879 85.868386,34.437557 C85.6710324,34.7061262 85.3895134,34.8404108 85.0238289,34.8404108 C84.8322799,34.8404108 84.6639489,34.7907839 84.518836,34.6915301 C84.3737231,34.5922763 84.2721441,34.4959417 84.2140989,34.4025263 C84.1560537,34.3091109 84.1270311,34.2536455 84.1270311,34.2361302 C84.1270311,34.2302917 84.1415424,34.2273725 84.170565,34.2273725 C84.2750463,34.2273725 84.3824299,34.1865032 84.4927157,34.1047648 C84.6030015,34.0230263 84.6581444,33.8887418 84.6581444,33.701911 C84.6581444,33.5559495 84.6117082,33.4333418 84.518836,33.334088 C84.4259637,33.2348342 84.2953621,33.182288 84.1270311,33.1764496 Z" id="E1-MJMAIN-32" stroke="#F59E01" stroke-width="0.5"></path>
                                <rect id="Rectangle" stroke="none" x="117.621499" y="34.002633" width="58.7922766" height="1"></rect>
                                <path d="M120.921945,41.4101283 C120.921945,41.2119345 121.110776,41.0963214 121.488439,41.0632891 C121.63622,41.0632891 121.710111,41.0178696 121.710111,40.9270308 C121.710111,40.9187727 121.701901,40.8650952 121.685481,40.7659983 C121.660851,40.6503852 121.63622,40.5760625 121.61159,40.5430302 C121.58696,40.5099979 121.533595,40.4934817 121.451494,40.4934817 C121.435074,40.4934817 121.385813,40.4934817 121.303713,40.4934817 C121.221612,40.4934817 121.082041,40.4976108 120.884999,40.5058688 C120.687958,40.5141269 120.425236,40.518256 120.096833,40.518256 C119.513919,40.518256 119.140361,40.5099979 118.976159,40.4934817 L118.877638,40.4934817 C118.820168,40.5512883 118.791433,40.5967077 118.791433,40.62974 C118.807853,40.8527081 118.861218,40.9972244 118.951529,41.0632891 L119.12394,41.0632891 C119.698645,41.0880633 120.117358,41.2945152 120.38008,41.6826449 C120.429341,41.7321933 121.172352,42.9915501 122.609113,45.4607152 C124.045875,47.9298803 124.77657,49.180979 124.8012,49.2140113 C124.858671,49.3131082 124.957192,49.3626567 125.096763,49.3626567 L125.195284,49.3626567 L125.40464,49.3626567 C125.453901,49.288334 125.478531,49.2470436 125.478531,49.2387855 L125.823354,45.2377471 C126.053235,42.5703882 126.176386,41.2243216 126.192807,41.1995473 C126.233857,41.1087085 126.500684,41.0632891 126.993288,41.0632891 C127.19854,41.0632891 127.301165,41.0219987 127.301165,40.9394179 C127.301165,40.9229017 127.28885,40.8650952 127.26422,40.7659983 C127.23959,40.6421271 127.219065,40.5678044 127.202645,40.5430302 C127.186224,40.518256 127.128754,40.5017398 127.030233,40.4934817 C127.005603,40.4934817 126.948133,40.4934817 126.857822,40.4934817 C126.767511,40.4934817 126.607415,40.4976108 126.377533,40.5058688 C126.147651,40.5141269 125.847984,40.518256 125.478531,40.518256 C124.706785,40.518256 124.201866,40.5099979 123.963774,40.4934817 L123.815993,40.4934817 C123.766732,40.5430302 123.742102,40.5801915 123.742102,40.6049658 C123.742102,40.62974 123.750312,40.7040627 123.766732,40.8279339 C123.799573,40.9352889 123.824203,41.0013535 123.840623,41.0261277 L123.889883,41.0632891 L124.136185,41.0632891 C124.579529,41.0880633 124.842251,41.1582569 124.924351,41.27387 L124.77657,43.1319374 L121.845577,43.1319374 L121.426864,42.4134847 C121.090251,41.8436774 120.921945,41.5092252 120.921945,41.4101283 Z M124.714995,43.7141319 C124.714995,43.8049707 124.665734,44.4491007 124.567214,45.6465219 C124.468693,46.8439431 124.411222,47.4467828 124.394802,47.4550408 L124.062295,46.9223949 C123.930934,46.6994268 123.672317,46.2576196 123.286443,45.5969735 L122.178085,43.7141319 L123.44654,43.7017447 C124.292176,43.7017447 124.714995,43.7058738 124.714995,43.7141319 Z" id="E1-MJMATHI-41" stroke="#F59E01" stroke-width="0.5"></path>
                                <path d="M134.24688,47.8142672 C134.304351,47.8720737 134.365926,47.900977 134.431607,47.900977 C134.521918,47.900977 134.583493,47.8720737 134.616333,47.8142672 C134.624543,47.8060091 134.895476,47.2031695 135.42913,46.0057483 C135.962784,44.8083271 136.500543,43.5943897 137.042408,42.3639362 C137.584272,41.1334827 137.855204,40.4934817 137.855204,40.4439333 C137.838784,40.2952879 137.756683,40.2209652 137.608902,40.2209652 C137.584272,40.2209652 137.563747,40.2250942 137.547327,40.2333523 C137.530907,40.2416104 137.510381,40.2457394 137.485751,40.2457394 C137.461121,40.2457394 137.444701,40.2581265 137.436491,40.2829008 C137.428281,40.307675 137.420071,40.3241911 137.411861,40.3324492 C137.403651,40.3407073 137.391335,40.3572235 137.374915,40.3819977 C137.358495,40.4067719 137.350285,40.4274171 137.350285,40.4439333 L134.431607,47.0338789 L131.512929,40.4439333 C131.439038,40.311804 131.373358,40.2416104 131.315887,40.2333523 C131.299467,40.2250942 131.278942,40.2209652 131.254312,40.2209652 C131.106531,40.2209652 131.02443,40.2952879 131.00801,40.4439333 C131.00801,40.4934817 131.274837,41.1293537 131.808491,42.3515491 C132.342145,43.5737445 132.879905,44.7876819 133.421769,45.9933612 C133.963633,47.1990404 134.23867,47.8060091 134.24688,47.8142672 Z" id="E1-MJMAIN-2227" stroke="#F59E01" stroke-width="0.5"></path>
                                <path d="M144.135904,48.3840745 C143.914232,48.3840745 143.782871,48.3882036 143.741821,48.3964616 C143.70077,48.4047197 143.680245,48.4501391 143.680245,48.5327199 C143.680245,48.755688 143.725401,48.8919463 143.815711,48.9414947 C143.823921,48.9497528 144.357576,48.9538819 145.416674,48.9538819 C147.543081,48.9538819 148.663755,48.9456238 148.778696,48.9291076 C149.29593,48.8465269 149.726958,48.6607201 150.071781,48.3716874 C150.416604,48.0826547 150.59312,47.7027832 150.60133,47.2320728 C150.60133,46.7035558 150.363238,46.2287164 149.887055,45.8075544 C149.410871,45.3863925 148.864901,45.1014888 148.249147,44.9528434 L148.125996,44.9156821 C148.65144,44.8413594 149.082468,44.6514236 149.419081,44.3458748 C149.755694,44.0403259 149.928105,43.6604544 149.936315,43.2062601 C149.936315,42.6034205 149.640753,42.021226 149.049628,41.4596768 C148.458503,40.8981275 147.731912,40.5801915 146.869856,40.5058688 C146.812385,40.4976108 145.946223,40.4934817 144.27137,40.4934817 C142.629357,40.4934817 141.796035,40.5017398 141.771405,40.518256 C141.738565,40.5430302 141.722145,40.5760625 141.722145,40.6173529 C141.722145,40.6751594 141.730355,40.732966 141.746775,40.7907725 C141.787825,40.947676 141.828876,41.0343858 141.869926,41.0509019 C141.902766,41.05916 141.964342,41.0632891 142.054652,41.0632891 L142.128543,41.0632891 C142.350215,41.0632891 142.596517,41.0756762 142.867449,41.1004504 C142.98239,41.1252246 143.060385,41.1747731 143.101436,41.2490958 C143.126066,41.2821281 143.421628,42.4300008 143.988123,44.692714 C144.554617,46.9554272 144.837865,48.1487193 144.837865,48.2725905 C144.837865,48.330397 144.603878,48.3675584 144.135904,48.3840745 Z M149.283615,47.2320728 C149.283615,47.4798151 149.222039,47.7110412 149.098888,47.9257512 C148.975737,48.1404613 148.774591,48.2808486 148.495449,48.3469132 C148.437978,48.3634293 148.060315,48.3758165 147.36246,48.3840745 C147.198258,48.3840745 147.025847,48.3840745 146.845225,48.3840745 C146.664604,48.3840745 146.520928,48.3799455 146.414197,48.3716874 L146.254101,48.3716874 C146.13095,48.3634293 146.052954,48.322139 146.020114,48.2478163 C146.003694,48.2147839 145.872333,47.7192993 145.626031,46.7613624 C145.626031,46.7365881 145.621926,46.7118139 145.613716,46.6870397 L145.231948,45.1262631 L146.229471,45.1262631 C146.894486,45.1262631 147.276254,45.1345211 147.374775,45.1510373 C147.867379,45.2336181 148.306617,45.4731023 148.69249,45.86949 C149.078363,46.2658777 149.275405,46.720072 149.283615,47.2320728 Z M148.6186,43.3301313 C148.6186,43.6934867 148.524184,43.9949065 148.335352,44.2343907 C148.146521,44.473875 147.900219,44.6142623 147.596446,44.6555527 C147.547186,44.6638107 147.206468,44.6679398 146.574293,44.6679398 C145.605506,44.6679398 145.117007,44.6638107 145.108797,44.6555527 C145.108797,44.6390365 145.039011,44.3376167 144.89944,43.7512932 C144.759869,43.1649697 144.616193,42.5827753 144.468412,42.0047099 L144.24674,41.1376118 C144.24674,41.1045794 144.296,41.0880633 144.394521,41.0880633 C144.493042,41.0880633 144.825549,41.0798052 145.392044,41.0632891 C146.12274,41.0632891 146.516823,41.0674181 146.574293,41.0756762 C147.083317,41.1334827 147.551291,41.372967 147.978214,41.7941289 C148.405138,42.2152908 148.6186,42.7272916 148.6186,43.3301313 Z" id="E1-MJMATHI-42" stroke="#F59E01" stroke-width="0.5"></path>
                                <path d="M154.049558,45.7208446 C154.484691,45.7538769 154.821304,45.9851031 155.059396,46.4145231 C155.297488,46.8439431 155.428849,47.3476858 155.453479,47.9257512 L155.453479,48.111558 L155.946083,48.111558 L155.946083,45.8323287 L157.608621,45.8323287 L157.608621,45.2625213 L155.946083,45.2625213 L155.946083,43.4787767 C155.954293,42.446517 155.958398,41.8643226 155.958398,41.7321933 C155.958398,41.6000641 155.987133,41.4679348 156.044603,41.3358056 C156.159544,41.0137406 156.360691,40.8527081 156.648043,40.8527081 C157.009286,40.8527081 157.230958,41.1458698 157.313059,41.7321933 C157.321269,41.7982579 157.325374,41.9881937 157.325374,42.3020006 L157.325374,42.7355497 L157.817978,42.7355497 L157.817978,42.3020006 L157.817978,42.1533553 C157.817978,41.5174833 157.645566,41.0343858 157.300743,40.7040627 C157.079072,40.4810946 156.791719,40.3696106 156.438687,40.3696106 C156.159544,40.3696106 155.917347,40.419159 155.712096,40.518256 C155.506844,40.6173529 155.350853,40.7453531 155.244122,40.9022566 C155.137391,41.05916 155.059396,41.2036764 155.010135,41.3358056 C154.960875,41.4679348 154.93214,41.6000641 154.92393,41.7321933 C154.91572,41.7899999 154.911614,42.4010976 154.911614,43.5654865 L154.911614,45.2625213 L153.938722,45.2625213 L153.938722,45.7208446 L154.049558,45.7208446 Z" id="E1-MJMAIN-74" stroke="#F59E01" stroke-width="0.5"></path>
                                <path d="M158.950967,41.0632891 L159.123378,41.0632891 C159.44357,41.0632891 159.636507,41.1210956 159.702187,41.2367087 L159.702187,41.3358056 C159.702187,41.4101283 159.702187,41.5050962 159.702187,41.6207093 C159.702187,41.7363224 159.706293,41.8643226 159.714503,42.0047099 C159.722713,42.1450972 159.722713,42.3061297 159.714503,42.4878074 C159.706293,42.6694851 159.706293,42.8429047 159.714503,43.0080663 C159.714503,43.2640666 159.714503,43.5365832 159.714503,43.8256159 C159.714503,44.1146486 159.714503,44.3582619 159.714503,44.5564557 L159.702187,44.8413594 C159.677557,44.9982629 159.620087,45.1014888 159.529776,45.1510373 C159.439465,45.2005858 159.254739,45.2377471 158.975597,45.2625213 L158.753925,45.2625213 L158.753925,45.547425 C158.753925,45.7373608 158.762135,45.8323287 158.778555,45.8323287 L158.901706,45.8447158 C158.983807,45.8529739 159.098748,45.8612319 159.246529,45.86949 C159.39431,45.8777481 159.542091,45.8860062 159.689872,45.8942642 C159.821233,45.9025223 159.96491,45.9107804 160.120901,45.9190385 C160.276892,45.9272966 160.395938,45.9396837 160.478039,45.9561998 C160.560139,45.972716 160.605295,45.976845 160.613505,45.9685869 L160.65045,45.9685869 L160.65045,45.1138759 C160.970643,45.6754252 161.368831,45.9561998 161.845015,45.9561998 L161.918905,45.9561998 C162.288358,45.9561998 162.55929,45.865361 162.731702,45.6836833 C162.904113,45.5020056 162.990319,45.3120698 162.990319,45.1138759 C162.990319,44.9404563 162.936953,44.7918109 162.830222,44.6679398 C162.723491,44.5440686 162.5675,44.482133 162.362249,44.482133 C162.156997,44.482133 162.005111,44.5481977 161.90659,44.6803269 C161.808069,44.8124561 161.754704,44.9528434 161.746494,45.1014888 C161.746494,45.1758115 161.754704,45.2418761 161.771124,45.2996827 C161.787544,45.3574892 161.808069,45.4070377 161.832699,45.4483281 C161.85733,45.4896185 161.869645,45.5102637 161.869645,45.5102637 C161.853225,45.5267798 161.758809,45.5102637 161.586397,45.4607152 C161.455036,45.3946506 161.356516,45.332715 161.290835,45.2749085 C160.904962,44.903295 160.712026,44.1641971 160.712026,43.0576147 L160.712026,42.4010976 C160.712026,42.2937426 160.712026,42.1822585 160.712026,42.0666454 C160.712026,41.9510324 160.712026,41.8436774 160.712026,41.7445804 C160.712026,41.6454835 160.716131,41.5629027 160.724341,41.4968381 C160.732551,41.4307735 160.732551,41.3688379 160.724341,41.3110314 L160.724341,41.2490958 C160.732551,41.2325796 160.744866,41.2160635 160.761286,41.1995473 C160.777706,41.1830312 160.798231,41.1706441 160.822861,41.162386 C160.847492,41.1541279 160.868017,41.1417408 160.884437,41.1252246 C160.900857,41.1087085 160.929592,41.1004504 160.970643,41.1004504 C161.011693,41.1004504 161.040428,41.0963214 161.056848,41.0880633 C161.073268,41.0798052 161.110214,41.0756762 161.167684,41.0756762 C161.225155,41.0756762 161.2621,41.0756762 161.27852,41.0756762 C161.29494,41.0756762 161.33599,41.0715471 161.401671,41.0632891 C161.467352,41.055031 161.508402,41.055031 161.524822,41.0632891 L161.90659,41.0632891 L161.90659,40.4934817 L161.795754,40.4934817 C161.647973,40.518256 161.126634,40.5306431 160.231737,40.5306431 C159.3861,40.5306431 158.926336,40.518256 158.852446,40.4934817 L158.753925,40.4934817 L158.753925,41.0632891 L158.950967,41.0632891 Z" id="E1-MJMAIN-72" stroke="#F59E01" stroke-width="0.5"></path>
                                <path d="M168.064139,41.2119345 C167.604375,40.6503852 167.083036,40.3696106 166.500121,40.3696106 L166.413916,40.3696106 C165.387658,40.3696106 164.796533,40.7783854 164.640542,41.595935 C164.632332,41.6537416 164.624122,42.2194199 164.615911,43.2929699 C164.607701,44.1931003 164.603596,44.696843 164.603596,44.804198 C164.603596,44.9115531 164.578966,44.9982629 164.529706,45.0643275 C164.447605,45.1964567 164.201303,45.2625213 163.7908,45.2625213 L163.655334,45.2625213 L163.655334,45.547425 C163.655334,45.7373608 163.663544,45.8323287 163.679964,45.8323287 L163.81543,45.8447158 C163.897531,45.8529739 164.016577,45.8612319 164.172568,45.86949 C164.328559,45.8777481 164.48455,45.8860062 164.640542,45.8942642 C164.780113,45.9025223 164.931999,45.9107804 165.0962,45.9190385 C165.260402,45.9272966 165.383553,45.9396837 165.465653,45.9561998 C165.547754,45.972716 165.597014,45.976845 165.613434,45.9685869 L165.65038,45.9685869 L165.65038,43.726519 C165.65859,42.2070328 165.670905,41.3936122 165.687325,41.2862571 C165.711955,41.162386 165.769426,41.0632891 165.859736,40.9889664 C166.023938,40.8733533 166.27024,40.8155467 166.598642,40.8155467 C166.812104,40.8155467 167.00504,40.8527081 167.177452,40.9270308 C167.349863,41.0013535 167.481224,41.0963214 167.571535,41.2119345 C167.661846,41.3275475 167.743946,41.4596768 167.817837,41.6083222 C167.891727,41.7569675 167.940988,41.8808387 167.965618,41.9799356 C167.990248,42.0790326 168.006668,42.1781295 168.014878,42.2772264 C168.014878,42.2854845 168.014878,42.3556781 168.014878,42.4878074 C168.014878,42.6199366 168.018984,42.7850982 168.027194,42.983292 C168.035404,43.1814859 168.035404,43.3755507 168.027194,43.5654865 L168.027194,44.3954232 C168.027194,44.7752948 167.986143,45.01065 167.904043,45.1014888 C167.821942,45.1923277 167.61669,45.2460052 167.288288,45.2625213 L167.066616,45.2625213 L167.066616,45.8323287 C167.083036,45.8323287 167.395019,45.8529739 168.002563,45.8942642 C168.610108,45.9355546 168.934406,45.9603289 168.975456,45.9685869 L169.061662,45.9685869 L169.061662,43.7636803 C169.061662,42.2772264 169.065767,41.5216123 169.073977,41.4968381 C169.098607,41.3316766 169.156078,41.2243216 169.246388,41.1747731 C169.336699,41.1252246 169.521425,41.0880633 169.800568,41.0632891 L170.022239,41.0632891 L170.022239,40.4934817 C170.005819,40.4934817 169.697942,40.4728365 169.098607,40.4315462 C168.499272,40.3902558 168.183185,40.3654815 168.150345,40.3572235 L168.064139,40.3572235 L168.064139,41.2119345 Z" id="E1-MJMAIN-75" stroke="#F59E01" stroke-width="0.5"></path>
                                <path d="M170.539474,43.193873 C170.539474,43.6480672 170.621574,44.0609711 170.785775,44.4325846 C170.949977,44.804198 171.155228,45.1056179 171.40153,45.336844 C171.647832,45.5680702 171.914659,45.7414898 172.202012,45.8571029 C172.489364,45.972716 172.760296,46.0346516 173.014808,46.0429096 C173.449942,46.0429096 173.8235,45.9685869 174.135482,45.8199415 C174.447465,45.6712962 174.685556,45.4648442 174.849758,45.2005858 C175.013959,44.9363273 175.1289,44.6720688 175.19458,44.4078103 C175.260261,44.1435519 175.297206,43.8503901 175.305416,43.5283251 C175.305416,43.4705186 175.276681,43.412712 175.219211,43.3549055 L171.746353,43.3549055 L171.746353,43.1690988 C171.746353,41.9469033 172.156856,41.2036764 172.977863,40.9394179 C173.142064,40.8898694 173.322686,40.8650952 173.519727,40.8650952 C173.86455,40.8650952 174.160112,40.9972244 174.406414,41.2614829 C174.545985,41.4018702 174.656821,41.5752899 174.738922,41.7817418 L174.862073,42.0790326 C174.886703,42.1038068 174.952384,42.1161939 175.059114,42.1161939 L175.09606,42.1161939 C175.235631,42.1161939 175.305416,42.0749035 175.305416,41.9923228 C175.305416,41.9592904 175.293101,41.9056129 175.268471,41.8312902 C175.11248,41.377096 174.853863,41.0178696 174.49262,40.7536112 C174.131377,40.4893527 173.724979,40.3572235 173.273425,40.3572235 C172.493469,40.3572235 171.844874,40.6421271 171.32764,41.2119345 C170.810406,41.7817418 170.547684,42.442388 170.539474,43.193873 Z M174.295578,43.8999386 C174.205268,44.9569725 173.81529,45.5185217 173.125644,45.5845863 L173.101014,45.5845863 C173.035333,45.5845863 172.969653,45.5804573 172.903972,45.5721992 C172.838292,45.5639412 172.735666,45.5309088 172.596095,45.4731023 C172.456524,45.4152958 172.337478,45.328586 172.238957,45.2129729 C172.140436,45.0973598 172.04602,44.9280692 171.95571,44.7051011 C171.865399,44.482133 171.799719,44.2096165 171.758668,43.8875515 L171.758668,43.8008417 L174.295578,43.8008417 L174.295578,43.8999386 Z" id="E1-MJMAIN-65" stroke="#F59E01" stroke-width="0.5"></path>
                                <path d="M132.436561,22.2224858 C132.436561,22.024292 132.625393,21.9086789 133.003056,21.8756466 C133.150837,21.8756466 133.224727,21.8302272 133.224727,21.7393883 C133.224727,21.7311302 133.216517,21.6774527 133.200097,21.5783558 C133.175467,21.4627427 133.150837,21.38842 133.126207,21.3553877 C133.101576,21.3223554 133.048211,21.3058393 132.96611,21.3058393 C132.94969,21.3058393 132.90043,21.3058393 132.818329,21.3058393 C132.736228,21.3058393 132.596657,21.3099683 132.399616,21.3182264 C132.202574,21.3264845 131.939852,21.3306135 131.61145,21.3306135 C131.028535,21.3306135 130.654977,21.3223554 130.490776,21.3058393 L130.392255,21.3058393 C130.334784,21.3636458 130.306049,21.4090652 130.306049,21.4420975 C130.322469,21.6650656 130.375835,21.809582 130.466145,21.8756466 L130.638557,21.8756466 C131.213261,21.9004208 131.631975,22.1068728 131.894697,22.4950024 C131.943957,22.5445509 132.686968,23.8039076 134.123729,26.2730727 C135.560491,28.7422378 136.291187,29.9933365 136.315817,30.0263688 C136.373287,30.1254658 136.471808,30.1750142 136.611379,30.1750142 L136.7099,30.1750142 L136.919257,30.1750142 C136.968517,30.1006915 136.993147,30.0594011 136.993147,30.0511431 L137.33797,26.0501046 C137.567852,23.3827457 137.691003,22.0366791 137.707423,22.0119049 C137.748473,21.921066 138.0153,21.8756466 138.507904,21.8756466 C138.713156,21.8756466 138.815782,21.8343562 138.815782,21.7517754 C138.815782,21.7352593 138.803467,21.6774527 138.778836,21.5783558 C138.754206,21.4544847 138.733681,21.380162 138.717261,21.3553877 C138.700841,21.3306135 138.64337,21.3140973 138.54485,21.3058393 C138.520219,21.3058393 138.462749,21.3058393 138.372438,21.3058393 C138.282127,21.3058393 138.122031,21.3099683 137.892149,21.3182264 C137.662268,21.3264845 137.3626,21.3306135 136.993147,21.3306135 C136.221401,21.3306135 135.716482,21.3223554 135.47839,21.3058393 L135.330609,21.3058393 C135.281349,21.3553877 135.256718,21.3925491 135.256718,21.4173233 C135.256718,21.4420975 135.264929,21.5164202 135.281349,21.6402914 C135.314189,21.7476464 135.338819,21.813711 135.355239,21.8384853 L135.4045,21.8756466 L135.650802,21.8756466 C136.094145,21.9004208 136.356867,21.9706145 136.438968,22.0862276 L136.291187,23.9442949 L133.360193,23.9442949 L132.94148,23.2258422 C132.604867,22.6560349 132.436561,22.3215828 132.436561,22.2224858 Z M136.229611,24.5264894 C136.229611,24.6173282 136.180351,25.2614583 136.08183,26.4588795 C135.983309,27.6563007 135.925839,28.2591403 135.909419,28.2673984 L135.576911,27.7347524 C135.44555,27.5117843 135.186933,27.0699772 134.80106,26.409331 L133.692701,24.5264894 L134.961156,24.5141023 C135.806793,24.5141023 136.229611,24.5182313 136.229611,24.5264894 Z" id="E1-MJMATHI-41" stroke="#F59E01" stroke-width="0.5"></path>
                                <path d="M142.522626,26.5332022 C142.95776,26.5662345 143.294372,26.7974606 143.532464,27.2268807 C143.770556,27.6563007 143.901917,28.1600434 143.926547,28.7381088 L143.926547,28.9239155 L144.419151,28.9239155 L144.419151,26.6446862 L146.081689,26.6446862 L146.081689,26.0748789 L144.419151,26.0748789 L144.419151,24.2911342 C144.427361,23.2588745 144.431466,22.6766801 144.431466,22.5445509 C144.431466,22.4124216 144.460202,22.2802924 144.517672,22.1481631 C144.632613,21.8260981 144.833759,21.6650656 145.121112,21.6650656 C145.482355,21.6650656 145.704026,21.9582274 145.786127,22.5445509 C145.794337,22.6106155 145.798442,22.8005513 145.798442,23.1143582 L145.798442,23.5479072 L146.291046,23.5479072 L146.291046,23.1143582 L146.291046,22.9657128 C146.291046,22.3298408 146.118635,21.8467433 145.773812,21.5164202 C145.55214,21.2934522 145.264788,21.1819681 144.911755,21.1819681 C144.632613,21.1819681 144.390416,21.2315166 144.185164,21.3306135 C143.979913,21.4297104 143.823921,21.5577106 143.717191,21.7146141 C143.61046,21.8715176 143.532464,22.0160339 143.483204,22.1481631 C143.433943,22.2802924 143.405208,22.4124216 143.396998,22.5445509 C143.388788,22.6023574 143.384683,23.2134551 143.384683,24.377844 L143.384683,26.0748789 L142.41179,26.0748789 L142.41179,26.5332022 L142.522626,26.5332022 Z" id="E1-MJMAIN-74" stroke="#F59E01" stroke-width="0.5"></path>
                                <path d="M147.424035,21.8756466 L147.596446,21.8756466 C147.916639,21.8756466 148.109575,21.9334531 148.175256,22.0490662 L148.175256,22.1481631 C148.175256,22.2224858 148.175256,22.3174537 148.175256,22.4330668 C148.175256,22.5486799 148.179361,22.6766801 148.187571,22.8170674 C148.195781,22.9574547 148.195781,23.1184872 148.187571,23.3001649 C148.179361,23.4818426 148.179361,23.6552622 148.187571,23.8204238 C148.187571,24.0764242 148.187571,24.3489407 148.187571,24.6379734 C148.187571,24.9270061 148.187571,25.1706194 148.187571,25.3688133 L148.175256,25.6537169 C148.150626,25.8106204 148.093155,25.9138464 148.002845,25.9633948 C147.912534,26.0129433 147.727807,26.0501046 147.448665,26.0748789 L147.226993,26.0748789 L147.226993,26.3597825 C147.226993,26.5497183 147.235204,26.6446862 147.251624,26.6446862 L147.374775,26.6570733 C147.456875,26.6653314 147.571816,26.6735895 147.719597,26.6818476 C147.867379,26.6901056 148.01516,26.6983637 148.162941,26.7066218 C148.294302,26.7148799 148.437978,26.7231379 148.593969,26.731396 C148.749961,26.7396541 148.869007,26.7520412 148.951107,26.7685574 C149.033208,26.7850735 149.078363,26.7892026 149.086573,26.7809445 L149.123519,26.7809445 L149.123519,25.9262335 C149.443711,26.4877827 149.841899,26.7685574 150.318083,26.7685574 L150.391974,26.7685574 C150.761427,26.7685574 151.032359,26.6777185 151.20477,26.4960408 C151.377181,26.3143631 151.463387,26.1244273 151.463387,25.9262335 C151.463387,25.7528139 151.410022,25.6041685 151.303291,25.4802973 C151.19656,25.3564262 151.040569,25.2944906 150.835317,25.2944906 C150.630065,25.2944906 150.478179,25.3605552 150.379659,25.4926844 C150.281138,25.6248137 150.227772,25.765201 150.219562,25.9138464 C150.219562,25.9881691 150.227772,26.0542337 150.244192,26.1120402 C150.260613,26.1698468 150.281138,26.2193952 150.305768,26.2606856 C150.330398,26.301976 150.342713,26.3226212 150.342713,26.3226212 C150.326293,26.3391373 150.231877,26.3226212 150.059466,26.2730727 C149.928105,26.2070081 149.829584,26.1450725 149.763904,26.087266 C149.378031,25.7156525 149.185094,24.9765546 149.185094,23.8699723 L149.185094,23.2134551 C149.185094,23.1061001 149.185094,22.9946161 149.185094,22.879003 C149.185094,22.7633899 149.185094,22.6560349 149.185094,22.556938 C149.185094,22.457841 149.189199,22.3752603 149.197409,22.3091957 C149.205619,22.243131 149.205619,22.1811955 149.197409,22.1233889 L149.197409,22.0614533 C149.205619,22.0449372 149.217934,22.028421 149.234354,22.0119049 C149.250775,21.9953887 149.2713,21.9830016 149.29593,21.9747435 C149.32056,21.9664855 149.341085,21.9540983 149.357505,21.9375822 C149.373926,21.921066 149.402661,21.9128079 149.443711,21.9128079 C149.484761,21.9128079 149.513497,21.9086789 149.529917,21.9004208 C149.546337,21.8921628 149.583282,21.8880337 149.640753,21.8880337 C149.698223,21.8880337 149.735168,21.8880337 149.751589,21.8880337 C149.768009,21.8880337 149.809059,21.8839047 149.874739,21.8756466 C149.94042,21.8673885 149.98147,21.8673885 149.99789,21.8756466 L150.379659,21.8756466 L150.379659,21.3058393 L150.268823,21.3058393 C150.121041,21.3306135 149.599702,21.3430006 148.704805,21.3430006 C147.859169,21.3430006 147.399405,21.3306135 147.325514,21.3058393 L147.226993,21.3058393 L147.226993,21.8756466 L147.424035,21.8756466 Z" id="E1-MJMAIN-72" stroke="#F59E01" stroke-width="0.5"></path>
                                <path d="M156.537207,22.024292 C156.077444,21.4627427 155.556105,21.1819681 154.97319,21.1819681 L154.886984,21.1819681 C153.860726,21.1819681 153.269601,21.5907429 153.11361,22.4082926 C153.1054,22.4660991 153.09719,23.0317774 153.08898,24.1053275 C153.08077,25.0054579 153.076665,25.5092006 153.076665,25.6165556 C153.076665,25.7239106 153.052035,25.8106204 153.002774,25.876685 C152.920674,26.0088143 152.674372,26.0748789 152.263868,26.0748789 L152.128402,26.0748789 L152.128402,26.3597825 C152.128402,26.5497183 152.136612,26.6446862 152.153033,26.6446862 L152.288499,26.6570733 C152.370599,26.6653314 152.489645,26.6735895 152.645636,26.6818476 C152.801628,26.6901056 152.957619,26.6983637 153.11361,26.7066218 C153.253181,26.7148799 153.405068,26.7231379 153.569269,26.731396 C153.73347,26.7396541 153.856621,26.7520412 153.938722,26.7685574 C154.020822,26.7850735 154.070083,26.7892026 154.086503,26.7809445 L154.123448,26.7809445 L154.123448,24.5388765 C154.131658,23.0193903 154.143973,22.2059697 154.160394,22.0986147 C154.185024,21.9747435 154.242494,21.8756466 154.332805,21.8013239 C154.497006,21.6857108 154.743308,21.6279043 155.071711,21.6279043 C155.285172,21.6279043 155.478109,21.6650656 155.65052,21.7393883 C155.822932,21.813711 155.954293,21.9086789 156.044603,22.024292 C156.134914,22.1399051 156.217015,22.2720343 156.290905,22.4206797 C156.364796,22.5693251 156.414056,22.6931962 156.438687,22.7922932 C156.463317,22.8913901 156.479737,22.990487 156.487947,23.089584 C156.487947,23.097842 156.487947,23.1680357 156.487947,23.3001649 C156.487947,23.4322942 156.492052,23.5974557 156.500262,23.7956496 C156.508472,23.9938434 156.508472,24.1879082 156.500262,24.377844 L156.500262,25.2077808 C156.500262,25.5876523 156.459212,25.8230075 156.377111,25.9138464 C156.29501,26.0046852 156.089759,26.0583627 155.761356,26.0748789 L155.539684,26.0748789 L155.539684,26.6446862 C155.556105,26.6446862 155.868087,26.6653314 156.475632,26.7066218 C157.083177,26.7479122 157.407474,26.7726864 157.448525,26.7809445 L157.53473,26.7809445 L157.53473,24.5760379 C157.53473,23.089584 157.538835,22.3339699 157.547045,22.3091957 C157.571676,22.1440341 157.629146,22.0366791 157.719457,21.9871306 C157.809767,21.9375822 157.994494,21.9004208 158.273636,21.8756466 L158.495308,21.8756466 L158.495308,21.3058393 C158.478888,21.3058393 158.17101,21.2851941 157.571676,21.2439037 C156.972341,21.2026133 156.656253,21.1778391 156.623413,21.169581 L156.537207,21.169581 L156.537207,22.024292 Z" id="E1-MJMAIN-75" stroke="#F59E01" stroke-width="0.5"></path>
                                <path d="M159.012542,24.0062305 C159.012542,24.4604248 159.094643,24.8733286 159.258844,25.2449421 C159.423045,25.6165556 159.628297,25.9179754 159.874599,26.1492016 C160.120901,26.3804277 160.387728,26.5538474 160.67508,26.6694604 C160.962432,26.7850735 161.233365,26.8470091 161.487877,26.8552672 C161.92301,26.8552672 162.296568,26.7809445 162.608551,26.6322991 C162.920533,26.4836537 163.158625,26.2772018 163.322826,26.0129433 C163.487028,25.7486848 163.601968,25.4844264 163.667649,25.2201679 C163.733329,24.9559094 163.770275,24.6627477 163.778485,24.3406827 C163.778485,24.2828761 163.74975,24.2250696 163.692279,24.167263 L160.219422,24.167263 L160.219422,23.9814563 C160.219422,22.7592609 160.629925,22.0160339 161.450931,21.7517754 C161.615133,21.702227 161.795754,21.6774527 161.992796,21.6774527 C162.337618,21.6774527 162.633181,21.809582 162.879483,22.0738405 C163.019054,22.2142278 163.12989,22.3876474 163.21199,22.5940993 L163.335141,22.8913901 C163.359772,22.9161643 163.425452,22.9285514 163.532183,22.9285514 L163.569128,22.9285514 C163.708699,22.9285514 163.778485,22.8872611 163.778485,22.8046803 C163.778485,22.771648 163.76617,22.7179705 163.74154,22.6436478 C163.585548,22.1894535 163.326931,21.8302272 162.965688,21.5659687 C162.604446,21.3017102 162.198047,21.169581 161.746494,21.169581 C160.966538,21.169581 160.317942,21.4544847 159.800708,22.024292 C159.283474,22.5940993 159.020752,23.2547455 159.012542,24.0062305 Z M162.768647,24.7122961 C162.678336,25.76933 162.288358,26.3308793 161.598713,26.3969439 L161.574082,26.3969439 C161.508402,26.3969439 161.442721,26.3928148 161.377041,26.3845568 C161.31136,26.3762987 161.208734,26.3432664 161.069163,26.2854598 C160.929592,26.2276533 160.810546,26.1409435 160.712026,26.0253304 C160.613505,25.9097173 160.519089,25.7404267 160.428778,25.5174587 C160.338468,25.2944906 160.272787,25.021974 160.231737,24.699909 L160.231737,24.6131992 L162.768647,24.6131992 L162.768647,24.7122961 Z" id="E1-MJMAIN-65" stroke="#F59E01" stroke-width="0.5"></path>
                                <path d="M184.898877,38.598253 C184.956348,38.6560595 185.017923,38.6849628 185.083604,38.6849628 C185.173915,38.6849628 185.23549,38.6560595 185.26833,38.598253 C185.27654,38.5899949 185.547473,37.9871553 186.081127,36.7897341 C186.614781,35.5923129 187.15254,34.3783755 187.694405,33.147922 C188.236269,31.9174685 188.507201,31.2774675 188.507201,31.2279191 C188.490781,31.0792737 188.40868,31.004951 188.260899,31.004951 C188.236269,31.004951 188.215744,31.00908 188.199324,31.0173381 C188.182904,31.0255962 188.162378,31.0297252 188.137748,31.0297252 C188.113118,31.0297252 188.096698,31.0421123 188.088488,31.0668866 C188.080278,31.0916608 188.072068,31.108177 188.063858,31.116435 C188.055648,31.1246931 188.043332,31.1412093 188.026912,31.1659835 C188.010492,31.1907577 188.002282,31.2114029 188.002282,31.2279191 L185.083604,37.8178647 L182.164926,31.2279191 C182.091035,31.0957898 182.025355,31.0255962 181.967884,31.0173381 C181.951464,31.00908 181.930939,31.004951 181.906309,31.004951 C181.758528,31.004951 181.676427,31.0792737 181.660007,31.2279191 C181.660007,31.2774675 181.926834,31.9133395 182.460488,33.1355349 C182.994142,34.3577303 183.531902,35.5716677 184.073766,36.777347 C184.61563,37.9830263 184.890667,38.5899949 184.898877,38.598253 Z" id="E1-MJMAIN-2227" stroke="#F59E01" stroke-width="0.5"></path>
                                <path d="M193.480579,31.2847883 C193.364489,31.2847883 193.306444,31.3227383 193.306444,31.3986383 C193.306444,31.4219921 193.320955,31.4920537 193.349978,31.6088229 C193.379,31.7255921 193.393512,31.8277652 193.393512,31.9153421 C193.393512,32.0963343 193.332564,32.2072651 193.210669,32.2481343 C193.088775,32.2890035 192.807256,32.3094382 192.366112,32.3094382 L191.91336,32.3094382 C191.907556,32.2977612 191.805977,31.8949075 191.608623,31.1008768 C191.411269,30.3068462 191.312593,29.8981539 191.312593,29.8748001 C191.312593,29.8514462 191.344518,29.8397693 191.408367,29.8397693 C191.472217,29.8397693 191.704398,29.8339309 192.104909,29.8222539 C192.650534,29.8222539 193.010414,29.8280924 193.184549,29.8397693 C193.358685,29.8514462 193.53282,29.8893962 193.706956,29.9536193 C193.991377,30.0470347 194.22646,30.2105116 194.412204,30.44405 C194.597949,30.6775884 194.804009,31.0600076 195.030385,31.5913075 C195.08843,31.7197536 195.12616,31.7898152 195.143573,31.8014921 C195.184205,31.813169 195.227739,31.8190075 195.274175,31.8190075 C195.390265,31.8190075 195.44831,31.7810575 195.44831,31.7051575 C194.838836,30.2221885 194.519588,29.4661078 194.490565,29.4369155 C194.473152,29.4252386 193.643106,29.4194002 192.000428,29.4194002 L190.354848,29.4194002 C189.762787,29.4194002 189.466757,29.4515117 189.466757,29.5157348 C189.466757,29.5274117 189.475463,29.5682809 189.492877,29.6383424 C189.516095,29.7317578 189.539313,29.7843039 189.562531,29.7959809 C189.585749,29.8076578 189.652501,29.8164155 189.762787,29.8222539 C189.919509,29.8222539 190.093644,29.8310116 190.285193,29.848527 C190.366457,29.8660424 190.421599,29.9010732 190.450622,29.9536193 C190.462231,29.9828116 190.668291,30.8031153 191.068803,32.4145304 C191.469315,34.0259456 191.672473,34.8433301 191.678277,34.8666839 C191.678277,34.9075531 191.666668,34.9279877 191.64345,34.9279877 C191.597014,34.9455031 191.443194,34.9600993 191.181991,34.9717762 L190.912081,34.9717762 C190.877254,35.006807 190.85984,35.0301608 190.85984,35.0418377 C190.85984,35.0535146 190.865645,35.1031416 190.877254,35.1907185 C190.900472,35.2899723 190.929495,35.3512761 190.964322,35.37463 L195.787875,35.37463 C195.828506,35.3512761 195.848822,35.3191646 195.848822,35.2782954 C195.848822,35.2491031 195.811093,34.9221493 195.735634,34.297434 C195.660175,33.6727187 195.619544,33.3516034 195.613739,33.334088 C195.60213,33.2932188 195.544085,33.2727842 195.439604,33.2727842 L195.335122,33.2727842 C195.294491,33.3019765 195.274175,33.3399265 195.274175,33.3866341 L195.300295,33.588061 C195.317709,33.7281841 195.326416,33.8799841 195.326416,34.043461 C195.326416,34.2186148 195.3061,34.3645763 195.265468,34.4813455 C195.224837,34.5981147 195.169694,34.6886109 195.100039,34.7528339 C195.030385,34.817057 194.928806,34.8637647 194.795302,34.892957 C194.661798,34.9221493 194.525392,34.9425839 194.386084,34.9542608 C194.246776,34.9659377 194.061031,34.9717762 193.82885,34.9717762 L193.419632,34.9717762 C192.908835,34.9659377 192.638925,34.95718 192.609902,34.9455031 C192.586684,34.9338262 192.56927,34.9075531 192.557661,34.8666839 C192.551857,34.8491685 192.461887,34.4901032 192.287751,33.7894879 C192.113616,33.0888726 192.023646,32.7327266 192.017841,32.7210496 C192.151345,32.7152112 192.290654,32.7122919 192.435767,32.7122919 L192.662143,32.7122919 C193.045241,32.7122919 193.309346,32.7560804 193.454459,32.8436573 C193.599572,32.9312342 193.730174,33.1676919 193.846264,33.5530303 C193.869482,33.6464456 193.886896,33.6989918 193.898505,33.7106687 C193.910114,33.7223456 193.959452,33.7311033 194.04652,33.7369418 C194.075542,33.7369418 194.09876,33.7369418 194.116174,33.7369418 C194.133587,33.7369418 194.148099,33.7340225 194.159708,33.7281841 C194.171317,33.7223456 194.177121,33.7194264 194.177121,33.7194264 C194.177121,33.7194264 194.182926,33.7077495 194.194535,33.6843956 C194.206144,33.6610418 194.214851,33.6493649 194.220655,33.6493649 L193.933332,32.4933497 C193.741783,31.7168344 193.637301,31.3227383 193.619888,31.3110614 C193.602474,31.293546 193.556038,31.2847883 193.480579,31.2847883 Z" id="E1-MJMATHI-45" stroke="#F59E01" stroke-width="0.5"></path>
                                <path d="M197.703365,34.4813455 L197.590177,34.437557 C197.508914,34.4083647 197.392823,34.3791724 197.241906,34.3499801 C197.090988,34.3207878 196.922657,34.3003532 196.736913,34.2886763 L196.571484,34.2886763 L196.571484,34.6915301 L196.736913,34.6915301 C197.009725,34.703207 197.262222,34.7469955 197.494402,34.8228954 C197.726583,34.8987954 197.889109,34.968857 197.981982,35.03308 C198.074854,35.0973031 198.156117,35.1615262 198.225771,35.2257492 C198.23738,35.2432646 198.272207,35.2520223 198.330253,35.2520223 C198.382493,35.2520223 198.431832,35.2345069 198.478268,35.1994762 L198.478268,32.5809266 L198.486975,29.9536193 C198.527606,29.9127501 198.562433,29.886477 198.591456,29.8748001 C198.620478,29.8631232 198.690133,29.8514462 198.800418,29.8397693 C198.910704,29.8280924 199.090644,29.8222539 199.340238,29.8222539 L199.566615,29.8222539 L199.566615,29.4194002 L199.47084,29.4194002 C199.348945,29.4369155 198.887486,29.4456732 198.086463,29.4456732 C197.297049,29.4456732 196.841394,29.4369155 196.719499,29.4194002 L196.615018,29.4194002 L196.615018,29.8222539 L196.841394,29.8222539 C196.969094,29.8222539 197.079379,29.8222539 197.172252,29.8222539 C197.265124,29.8222539 197.33768,29.8251732 197.389921,29.8310116 C197.442162,29.8368501 197.488598,29.8456078 197.529229,29.8572847 C197.569861,29.8689616 197.593079,29.8748001 197.598884,29.8748001 C197.604688,29.8748001 197.622102,29.8893962 197.651124,29.9185885 C197.680147,29.9477808 197.69756,29.9594578 197.703365,29.9536193 L197.703365,34.4813455 Z" id="E1-MJMAIN-31" stroke="#F59E01" stroke-width="0.5"></path>
                                <path d="M75.2698774,8.16310935 C75.0482056,8.16310935 74.9168446,8.16723839 74.8757943,8.17549646 C74.8347439,8.18375454 74.8142188,8.22917397 74.8142188,8.31175474 C74.8142188,8.53472282 74.8593741,8.6709811 74.9496848,8.72052956 C74.9578949,8.72878764 75.4915491,8.73291668 76.5506476,8.73291668 C78.6770544,8.73291668 79.7977283,8.7246586 79.9126692,8.70814245 C80.4299033,8.62556167 80.8609318,8.43975494 81.2057545,8.15072223 C81.5505772,7.86168953 81.7270936,7.48181798 81.7353037,7.01110757 C81.7353037,6.48259063 81.4972118,6.00775119 81.021028,5.58658925 C80.5448443,5.16542731 79.9988749,4.88052365 79.38312,4.73187826 L79.2599691,4.69471691 C79.7854132,4.62039421 80.2164416,4.43045844 80.5530543,4.12490958 C80.889667,3.81936072 81.0620784,3.43948917 81.0702884,2.98529492 C81.0702884,2.38245528 80.7747261,1.80026084 80.1836014,1.23871159 C79.5924767,0.677162333 78.8658859,0.35922636 78.0038291,0.284903665 C77.9463586,0.276645587 77.0801968,0.272516549 75.4053435,0.272516549 C73.7633304,0.272516549 72.9300088,0.280774626 72.9053786,0.297290781 C72.8725384,0.322065012 72.8561182,0.355097321 72.8561182,0.396387707 C72.8561182,0.454194248 72.8643283,0.512000789 72.8807484,0.569807329 C72.9217988,0.726710797 72.9628491,0.813420608 73.0038994,0.829936762 C73.0367397,0.83819484 73.0983152,0.842323878 73.1886259,0.842323878 L73.2625165,0.842323878 C73.4841882,0.842323878 73.7304902,0.854710994 74.0014223,0.879485226 C74.1163632,0.904259457 74.1943589,0.953807921 74.2354092,1.02813062 C74.2600394,1.06116292 74.5556017,2.20903566 75.1220962,4.47174882 C75.6885907,6.73446199 75.971838,7.92775415 75.971838,8.05162531 C75.971838,8.10943185 75.7378511,8.14659319 75.2698774,8.16310935 Z M80.4175882,7.01110757 C80.4175882,7.25884989 80.3560128,7.49007605 80.2328618,7.70478606 C80.1097108,7.91949607 79.9085642,8.05988338 79.629422,8.125948 C79.5719515,8.14246416 79.1942885,8.15485127 78.496433,8.16310935 C78.3322317,8.16310935 78.1598203,8.16310935 77.9791989,8.16310935 C77.7985775,8.16310935 77.6549013,8.15898031 77.5481705,8.15072223 L77.3880742,8.15072223 C77.2649232,8.14246416 77.1869276,8.10117377 77.1540873,8.02685107 C77.1376672,7.99381877 77.0063062,7.49833413 76.7600042,6.54039717 C76.7600042,6.51562294 76.7558992,6.49084871 76.7476891,6.46607448 L76.3659211,4.90529788 L77.363444,4.90529788 C78.0284593,4.90529788 78.4102273,4.91355596 78.5087481,4.93007211 C79.001352,5.01265288 79.4405905,5.25213712 79.8264636,5.64852483 C80.2123366,6.04491254 80.4093782,6.49910679 80.4175882,7.01110757 Z M79.752573,3.10916608 C79.752573,3.47252148 79.6581572,3.7739413 79.4693257,4.01342554 C79.2804942,4.25290978 79.0341923,4.39329709 78.7304199,4.43458748 C78.6811595,4.44284555 78.3404418,4.44697459 77.7082667,4.44697459 C76.7394791,4.44697459 76.2509802,4.44284555 76.2427701,4.43458748 C76.2427701,4.41807132 76.1729846,4.1166515 76.0334134,3.53032802 C75.8938423,2.94400454 75.7501662,2.36181009 75.602385,1.78374468 L75.3807133,0.916646573 C75.3807133,0.883614264 75.4299737,0.86709811 75.5284944,0.86709811 C75.6270152,0.86709811 75.9595229,0.858840033 76.5260174,0.842323878 C77.2567132,0.842323878 77.6507963,0.846452917 77.7082667,0.854710994 C78.2172908,0.912517535 78.6852645,1.15200177 79.1121879,1.57316371 C79.5391113,1.99432565 79.752573,2.50632644 79.752573,3.10916608 Z" id="E1-MJMATHI-42" stroke="#F59E01" stroke-width="0.5"></path>
                                <path d="M88.4224018,7.59330202 C88.4798722,7.65110856 88.5414477,7.68001183 88.6071282,7.68001183 C88.697439,7.68001183 88.7590144,7.65110856 88.7918547,7.59330202 C88.8000648,7.58504394 89.0709969,6.9822043 89.6046512,5.7847831 C90.1383054,4.58736191 90.6760647,3.37342455 91.217929,2.14297104 C91.7597933,0.912517535 92.0307254,0.272516549 92.0307254,0.222968085 C92.0143053,0.0743226951 91.9322046,0 91.7844235,0 C91.7597933,0 91.7392681,0.00412903862 91.722848,0.0123871159 C91.7064278,0.0206451931 91.6859027,0.0247742317 91.6612725,0.0247742317 C91.6366423,0.0247742317 91.6202222,0.0371613476 91.6120121,0.0619355793 C91.603802,0.086709811 91.595592,0.103225965 91.5873819,0.111484043 C91.5791718,0.11974212 91.5668567,0.136258274 91.5504366,0.161032506 C91.5340165,0.185806738 91.5258064,0.206451931 91.5258064,0.222968085 L88.6071282,6.81291372 L85.6884501,0.222968085 C85.6145595,0.0908388496 85.548879,0.0206451931 85.4914085,0.0123871159 C85.4749884,0.00412903862 85.4544632,0 85.429833,0 C85.2820519,0 85.1999512,0.0743226951 85.1835311,0.222968085 C85.1835311,0.272516549 85.4503582,0.908388496 85.9840124,2.13058393 C86.5176667,3.35277936 87.0554259,4.56671671 87.5972902,5.77239599 C88.1391545,6.97807527 88.4141917,7.58504394 88.4224018,7.59330202 Z" id="E1-MJMAIN-2227" stroke="#F59E01" stroke-width="0.5"></path>
                                <path d="M98.028178,1.18916312 C98.028178,0.990969268 98.2170095,0.875356187 98.5946725,0.842323878 C98.7424537,0.842323878 98.8163443,0.796904453 98.8163443,0.706065604 C98.8163443,0.697807527 98.8081342,0.644130024 98.7917141,0.545033098 C98.7670839,0.429420016 98.7424537,0.355097321 98.7178235,0.322065012 C98.6931933,0.289032703 98.6398279,0.272516549 98.5577272,0.272516549 C98.5413071,0.272516549 98.4920467,0.272516549 98.409946,0.272516549 C98.3278454,0.272516549 98.1882743,0.276645587 97.9912327,0.284903665 C97.7941912,0.293161742 97.5314691,0.297290781 97.2030665,0.297290781 C96.6201518,0.297290781 96.2465939,0.289032703 96.0823926,0.272516549 L95.9838718,0.272516549 C95.9264013,0.330323089 95.8976661,0.375742514 95.8976661,0.408774823 C95.9140862,0.631742909 95.9674517,0.77625926 96.0577624,0.842323878 L96.2301737,0.842323878 C96.8048783,0.86709811 97.2235916,1.07355004 97.4863137,1.46167967 C97.5355741,1.51122813 98.278585,2.77058491 99.7153464,5.23975001 C101.152108,7.7089151 101.882804,8.9600138 101.907434,8.99304611 C101.964904,9.09214304 102.063425,9.1416915 102.202996,9.1416915 L102.301517,9.1416915 L102.510874,9.1416915 C102.560134,9.06736881 102.584764,9.02607842 102.584764,9.01782034 L102.929587,5.01678192 C103.159469,2.34942297 103.28262,1.00335638 103.29904,0.978582153 C103.34009,0.887743303 103.606917,0.842323878 104.099521,0.842323878 C104.304773,0.842323878 104.407399,0.801033492 104.407399,0.71845272 C104.407399,0.701936565 104.395084,0.644130024 104.370453,0.545033098 C104.345823,0.421161939 104.325298,0.346839244 104.308878,0.322065012 C104.292458,0.297290781 104.234987,0.280774626 104.136466,0.272516549 C104.111836,0.272516549 104.054366,0.272516549 103.964055,0.272516549 C103.873744,0.272516549 103.713648,0.276645587 103.483766,0.284903665 C103.253884,0.293161742 102.954217,0.297290781 102.584764,0.297290781 C101.813018,0.297290781 101.308099,0.289032703 101.070007,0.272516549 L100.922226,0.272516549 C100.872966,0.322065012 100.848335,0.35922636 100.848335,0.384000592 C100.848335,0.408774823 100.856545,0.483097518 100.872966,0.606968677 C100.905806,0.714323681 100.930436,0.780388299 100.946856,0.805162531 L100.996117,0.842323878 L101.242419,0.842323878 C101.685762,0.86709811 101.948484,0.937291766 102.030585,1.05290485 L101.882804,2.91097223 L98.9518103,2.91097223 L98.533097,2.19251951 C98.1964843,1.62271218 98.028178,1.28826005 98.028178,1.18916312 Z M101.821228,3.49316667 C101.821228,3.58400552 101.771968,4.22813555 101.673447,5.42555674 C101.574926,6.62297794 101.517456,7.22581758 101.501036,7.23407566 L101.168528,6.70142968 C101.037167,6.47846159 100.77855,6.03665446 100.392677,5.37600828 L99.284318,3.49316667 L100.552773,3.48077956 C101.39841,3.48077956 101.821228,3.48490859 101.821228,3.49316667 Z" id="E1-MJMATHI-41" stroke="#F59E01" stroke-width="0.5"></path>
                                <path d="M108.114243,5.49987944 C108.549377,5.53291175 108.885989,5.76413791 109.124081,6.19355793 C109.362173,6.62297794 109.493534,7.12672066 109.518164,7.70478606 L109.518164,7.8905928 L110.010768,7.8905928 L110.010768,5.61136348 L111.673306,5.61136348 L111.673306,5.04155615 L110.010768,5.04155615 L110.010768,3.25781147 C110.018978,2.22555182 110.023083,1.64335737 110.023083,1.51122813 C110.023083,1.3790989 110.051818,1.24696966 110.109289,1.11484043 C110.22423,0.792775415 110.425376,0.631742909 110.712729,0.631742909 C111.073972,0.631742909 111.295643,0.924904651 111.377744,1.51122813 C111.385954,1.57729275 111.390059,1.76722853 111.390059,2.08103546 L111.390059,2.51458452 L111.882663,2.51458452 L111.882663,2.08103546 L111.882663,1.93239007 C111.882663,1.29651813 111.710252,0.813420608 111.365429,0.483097518 C111.143757,0.260129433 110.856405,0.14864539 110.503372,0.14864539 C110.22423,0.14864539 109.982033,0.198193854 109.776781,0.297290781 C109.57153,0.396387707 109.415538,0.524387905 109.308808,0.681291372 C109.202077,0.83819484 109.124081,0.982711191 109.074821,1.11484043 C109.02556,1.24696966 108.996825,1.3790989 108.988615,1.51122813 C108.980405,1.56903468 108.9763,2.18013239 108.9763,3.34452128 L108.9763,5.04155615 L108.003407,5.04155615 L108.003407,5.49987944 L108.114243,5.49987944 Z" id="E1-MJMAIN-74" stroke="#F59E01" stroke-width="0.5"></path>
                                <path d="M113.015652,0.842323878 L113.188063,0.842323878 C113.508256,0.842323878 113.701192,0.900130419 113.766873,1.0157435 L113.766873,1.11484043 C113.766873,1.18916312 113.766873,1.28413101 113.766873,1.39974409 C113.766873,1.51535717 113.770978,1.64335737 113.779188,1.78374468 C113.787398,1.924132 113.787398,2.0851645 113.779188,2.2668422 C113.770978,2.4485199 113.770978,2.62193952 113.779188,2.78710107 C113.779188,3.04310146 113.779188,3.31561801 113.779188,3.60465071 C113.779188,3.89368342 113.779188,4.1372967 113.779188,4.33549055 L113.766873,4.62039421 C113.742243,4.77729768 113.684772,4.88052365 113.594462,4.93007211 C113.504151,4.97962057 113.319424,5.01678192 113.040282,5.04155615 L112.81861,5.04155615 L112.81861,5.32645982 C112.81861,5.51639559 112.82682,5.61136348 112.843241,5.61136348 L112.966392,5.6237506 C113.048492,5.63200868 113.163433,5.64026675 113.311214,5.64852483 C113.458995,5.65678291 113.606777,5.66504098 113.754558,5.67329906 C113.885919,5.68155714 114.029595,5.68981522 114.185586,5.69807329 C114.341577,5.70633137 114.460623,5.71871849 114.542724,5.73523464 C114.624825,5.7517508 114.66998,5.75587983 114.67819,5.74762176 L114.715135,5.74762176 L114.715135,4.89291076 C115.035328,5.45446002 115.433516,5.73523464 115.9097,5.73523464 L115.983591,5.73523464 C116.353043,5.73523464 116.623976,5.64439579 116.796387,5.46271809 C116.968798,5.28104039 117.055004,5.09110462 117.055004,4.89291076 C117.055004,4.71949114 117.001639,4.57084575 116.894908,4.44697459 C116.788177,4.32310343 116.632186,4.26116785 116.426934,4.26116785 C116.221682,4.26116785 116.069796,4.32723247 115.971275,4.45936171 C115.872755,4.59149094 115.819389,4.73187826 115.811179,4.88052365 C115.811179,4.95484634 115.819389,5.02091096 115.835809,5.0787175 C115.852229,5.13652404 115.872755,5.1860725 115.897385,5.22736289 C115.922015,5.26865328 115.93433,5.28929847 115.93433,5.28929847 C115.91791,5.30581462 115.823494,5.28929847 115.651083,5.23975001 C115.519722,5.17368539 115.421201,5.11174981 115.355521,5.05394327 C114.969647,4.68232979 114.776711,3.94323188 114.776711,2.83664953 L114.776711,2.18013239 C114.776711,2.07277739 114.776711,1.96129334 114.776711,1.84568026 C114.776711,1.73006718 114.776711,1.62271218 114.776711,1.52361525 C114.776711,1.42451832 114.780816,1.34193755 114.789026,1.27587293 C114.797236,1.20980832 114.797236,1.14787274 114.789026,1.0900662 L114.789026,1.02813062 C114.797236,1.01161446 114.809551,0.995098307 114.825971,0.978582153 C114.842391,0.962065998 114.862917,0.949678882 114.887547,0.941420805 C114.912177,0.933162728 114.932702,0.920775612 114.949122,0.904259457 C114.965542,0.887743303 114.994278,0.879485226 115.035328,0.879485226 C115.076378,0.879485226 115.105114,0.875356187 115.121534,0.86709811 C115.137954,0.858840033 115.174899,0.854710994 115.23237,0.854710994 C115.28984,0.854710994 115.326785,0.854710994 115.343205,0.854710994 C115.359626,0.854710994 115.400676,0.850581955 115.466356,0.842323878 C115.532037,0.834065801 115.573087,0.834065801 115.589507,0.842323878 L115.971275,0.842323878 L115.971275,0.272516549 L115.86044,0.272516549 C115.712658,0.297290781 115.191319,0.309677896 114.296422,0.309677896 C113.450785,0.309677896 112.991022,0.297290781 112.917131,0.272516549 L112.81861,0.272516549 L112.81861,0.842323878 L113.015652,0.842323878 Z" id="E1-MJMAIN-72" stroke="#F59E01" stroke-width="0.5"></path>
                                <path d="M122.128824,0.990969268 C121.669061,0.429420016 121.147722,0.14864539 120.564807,0.14864539 L120.478601,0.14864539 C119.452343,0.14864539 118.861218,0.557420214 118.705227,1.37496986 C118.697017,1.4327764 118.688807,1.99845469 118.680597,3.07200473 C118.672387,3.97213515 118.668282,4.47587786 118.668282,4.58323287 C118.668282,4.69058787 118.643652,4.77729768 118.594391,4.8433623 C118.512291,4.97549154 118.265989,5.04155615 117.855485,5.04155615 L117.720019,5.04155615 L117.720019,5.32645982 C117.720019,5.51639559 117.728229,5.61136348 117.744649,5.61136348 L117.880116,5.6237506 C117.962216,5.63200868 118.081262,5.64026675 118.237253,5.64852483 C118.393245,5.65678291 118.549236,5.66504098 118.705227,5.67329906 C118.844798,5.68155714 118.996684,5.68981522 119.160886,5.69807329 C119.325087,5.70633137 119.448238,5.71871849 119.530339,5.73523464 C119.612439,5.7517508 119.6617,5.75587983 119.67812,5.74762176 L119.715065,5.74762176 L119.715065,3.50555379 C119.723275,1.98606758 119.73559,1.17264697 119.75201,1.06529196 C119.776641,0.941420805 119.834111,0.842323878 119.924422,0.768001183 C120.088623,0.652388102 120.334925,0.594581561 120.663328,0.594581561 C120.876789,0.594581561 121.069726,0.631742909 121.242137,0.706065604 C121.414549,0.780388299 121.54591,0.875356187 121.63622,0.990969268 C121.726531,1.10658235 121.808632,1.23871159 121.882522,1.38735698 C121.956413,1.53600237 122.005673,1.65987352 122.030304,1.75897045 C122.054934,1.85806738 122.071354,1.95716431 122.079564,2.05626123 C122.079564,2.06451931 122.079564,2.13471297 122.079564,2.2668422 C122.079564,2.39897144 122.083669,2.56413298 122.091879,2.76232684 C122.100089,2.96052069 122.100089,3.1545855 122.091879,3.34452128 L122.091879,4.17445804 C122.091879,4.5543296 122.050829,4.7896848 121.968728,4.88052365 C121.886627,4.9713625 121.681376,5.02504 121.352973,5.04155615 L121.131301,5.04155615 L121.131301,5.61136348 C121.147722,5.61136348 121.459704,5.63200868 122.067249,5.67329906 C122.674794,5.71458945 122.999091,5.73936368 123.040142,5.74762176 L123.126347,5.74762176 L123.126347,3.54271513 C123.126347,2.05626123 123.130452,1.30064716 123.138662,1.27587293 C123.163292,1.11071139 123.220763,1.00335638 123.311074,0.953807921 C123.401384,0.904259457 123.586111,0.86709811 123.865253,0.842323878 L124.086925,0.842323878 L124.086925,0.272516549 C124.070505,0.272516549 123.762627,0.251871356 123.163292,0.21058097 C122.563958,0.169290583 122.24787,0.144516352 122.21503,0.136258274 L122.128824,0.136258274 L122.128824,0.990969268 Z" id="E1-MJMAIN-75" stroke="#F59E01" stroke-width="0.5"></path>
                                <path d="M124.604159,2.97290781 C124.604159,3.42710205 124.68626,3.84000592 124.850461,4.21161939 C125.014662,4.58323287 125.219914,4.88465269 125.466216,5.11587885 C125.712518,5.34710501 125.979345,5.52052463 126.266697,5.63613771 C126.554049,5.7517508 126.824982,5.81368637 127.079494,5.82194445 C127.514627,5.82194445 127.888185,5.74762176 128.200167,5.59897637 C128.51215,5.45033098 128.750242,5.24387905 128.914443,4.97962057 C129.078644,4.7153621 129.193585,4.45110363 129.259266,4.18684516 C129.324946,3.92258669 129.361892,3.62942495 129.370102,3.30735993 C129.370102,3.24955339 129.341367,3.19174685 129.283896,3.13394031 L125.811039,3.13394031 L125.811039,2.94813357 C125.811039,1.72593814 126.221542,0.982711191 127.042548,0.71845272 C127.20675,0.668904256 127.387371,0.644130024 127.584413,0.644130024 C127.929235,0.644130024 128.224798,0.77625926 128.4711,1.04051773 C128.610671,1.18090504 128.721507,1.35432467 128.803607,1.5607766 L128.926758,1.85806738 C128.951388,1.88284161 129.017069,1.89522873 129.1238,1.89522873 L129.160745,1.89522873 C129.300316,1.89522873 129.370102,1.85393834 129.370102,1.77135757 C129.370102,1.73832526 129.357787,1.68464776 129.333156,1.61032506 C129.177165,1.15613081 128.918548,0.796904453 128.557305,0.532645982 C128.196062,0.26838751 127.789664,0.136258274 127.338111,0.136258274 C126.558154,0.136258274 125.909559,0.421161939 125.392325,0.990969268 C124.875091,1.5607766 124.612369,2.22142278 124.604159,2.97290781 Z M128.360264,3.67897341 C128.269953,4.7360073 127.879975,5.29755655 127.190329,5.36362117 L127.165699,5.36362117 C127.100019,5.36362117 127.034338,5.35949213 126.968658,5.35123405 C126.902977,5.34297597 126.800351,5.30994366 126.66078,5.25213712 C126.521209,5.19433058 126.402163,5.10762077 126.303642,4.99200769 C126.205122,4.87639461 126.110706,4.70710403 126.020395,4.48413594 C125.930084,4.26116785 125.864404,3.98865131 125.823354,3.66658629 L125.823354,3.57987648 L128.360264,3.57987648 L128.360264,3.67897341 Z" id="E1-MJMAIN-65" stroke="#F59E01" stroke-width="0.5"></path>
                                <path d="M210.662062,18.493964 C210.719532,18.5517705 210.781108,18.5806738 210.846788,18.5806738 C210.937099,18.5806738 210.998675,18.5517705 211.031515,18.493964 C211.039725,18.4857059 211.310657,17.8828663 211.844311,16.6854451 C212.377966,15.4880239 212.915725,14.2740865 213.457589,13.043633 C213.999453,11.8131795 214.270386,11.1731785 214.270386,11.12363 C214.253965,10.9749846 214.171865,10.900662 214.024084,10.900662 C213.999453,10.900662 213.978928,10.904791 213.962508,10.9130491 C213.946088,10.9213071 213.925563,10.9254362 213.900933,10.9254362 C213.876302,10.9254362 213.859882,10.9378233 213.851672,10.9625975 C213.843462,10.9873718 213.835252,11.0038879 213.827042,11.012146 C213.818832,11.0204041 213.806517,11.0369202 213.790097,11.0616945 C213.773677,11.0864687 213.765467,11.1071139 213.765467,11.12363 L210.846788,17.7135757 L207.92811,11.12363 C207.85422,10.9915008 207.788539,10.9213071 207.731069,10.9130491 C207.714649,10.904791 207.694123,10.900662 207.669493,10.900662 C207.521712,10.900662 207.439611,10.9749846 207.423191,11.12363 C207.423191,11.1731785 207.690018,11.8090504 208.223673,13.0312459 C208.757327,14.2534413 209.295086,15.4673787 209.83695,16.6730579 C210.378815,17.8787372 210.653852,18.4857059 210.662062,18.493964 Z" id="E1-MJMAIN-2227" stroke="#F59E01" stroke-width="0.5"></path>
                                <path d="M215.33074,9.31654803 C215.232063,9.31654803 215.182725,9.3428211 215.182725,9.39536725 C215.182725,9.40704417 215.191432,9.44791339 215.208845,9.51797492 C215.237868,9.62890567 215.26689,9.69020951 215.295913,9.70188643 C215.313327,9.70772489 215.35686,9.71064412 215.426515,9.71064412 L215.478755,9.71064412 C215.827026,9.71064412 216.047598,9.73107873 216.14047,9.77194796 C216.146275,9.77194796 216.152079,9.77486719 216.157884,9.78070565 C216.186906,9.79238257 216.218831,9.85952487 216.253658,9.98213254 C216.288485,10.1047402 216.430696,10.6769094 216.68029,11.69864 C216.749944,11.9613707 216.802185,12.168636 216.837012,12.320436 C217.243328,13.955205 217.446486,14.7784279 217.446486,14.7901048 C217.434877,14.8134587 217.429073,14.8280548 217.429073,14.8338933 C217.371028,14.8689241 217.164967,14.8864394 216.810892,14.8864394 L216.636756,14.8864394 C216.584516,14.9214702 216.572907,14.994451 216.601929,15.1053817 C216.625147,15.1929586 216.642561,15.2455048 216.65417,15.2630202 C216.665779,15.2805355 216.70641,15.2892932 216.776065,15.2892932 L216.810892,15.2892932 C217.228817,15.2776163 217.652547,15.2717778 218.082081,15.2717778 C218.790232,15.2717778 219.161721,15.2776163 219.196548,15.2892932 L219.283616,15.2892932 C219.324247,15.248424 219.344563,15.2163125 219.344563,15.1929586 C219.344563,15.1696048 219.335856,15.1199779 219.318443,15.0440779 C219.301029,14.9681779 219.280713,14.9214702 219.257495,14.9039548 C219.240082,14.8922779 219.17333,14.8864394 219.057239,14.8864394 C218.877299,14.8864394 218.691555,14.8776818 218.500006,14.8601664 C218.418743,14.842651 218.3636,14.8105395 218.334577,14.7638318 C218.293946,14.6820933 218.14593,14.1245203 217.890532,13.0911128 C217.826682,12.8167052 217.762832,12.5510552 217.698983,12.2941629 C217.292667,10.6827478 217.089508,9.85952487 217.089508,9.8244941 C217.089508,9.78362488 217.118531,9.7573518 217.176576,9.74567488 C217.234621,9.73399796 217.385539,9.72232104 217.629328,9.71064412 L217.907945,9.71064412 C217.942772,9.66393643 217.960186,9.63766336 217.960186,9.6318249 C217.960186,9.62598644 217.951479,9.5734403 217.934066,9.47418647 C217.910848,9.39828648 217.881825,9.3428211 217.846998,9.30779034 L217.707689,9.30779034 C217.492922,9.31946726 217.095313,9.32530572 216.514861,9.32530572 C216.305899,9.32530572 216.11435,9.32530572 215.940214,9.32530572 C215.766079,9.32530572 215.62677,9.32530572 215.522289,9.32530572 C215.417808,9.32530572 215.353958,9.32238649 215.33074,9.31654803 Z" id="E1-MJMATHI-49" stroke="#F59E01" stroke-width="0.5"></path>
                            </g>
                        </g>
                        <text id="Commutativity-of-AND" mask="url(#mask-2)" font-family="CMUSerif-Bold, CMU Serif" font-size="14" font-style="expanded" font-weight="bold" letter-spacing="-0.336" fill="#F59E01">
                            <tspan x="38" y="95">Commutativity of AND</tspan>
                        </text>
                    </g>
                </g>
            </g>
        </g>
    </g>
</svg>