<?xml version="1.0" encoding="UTF-8"?>
<svg width="240px" height="120px" viewBox="0 0 240 120" version="1.1" xmlns="http://www.w3.org/2000/svg" xmlns:xlink="http://www.w3.org/1999/xlink">
    <title>Illustration</title>
    <defs>
        <rect id="path-1" x="0" y="0" width="240" height="120"></rect>
    </defs>
    <g id="Modules" stroke="none" stroke-width="1" fill="none" fill-rule="evenodd">
        <g id="Module-View" transform="translate(-870.000000, -393.000000)">
            <g id="Main-Body" transform="translate(330.000000, 94.000000)">
                <g id="Course-Tiles" transform="translate(0.000000, 264.000000)">
                    <g id="Computer-Systems" transform="translate(540.000000, 0.000000)">
                        <g id="Group" transform="translate(0.000000, 35.000000)">
                            <mask id="mask-2" fill="white">
                                <use xlink:href="#path-1"></use>
                            </mask>
                            <use id="Rectangle" fill="#E3FAFC" xlink:href="#path-1"></use>
                            <g id="Group-7" mask="url(#mask-2)">
                                <g transform="translate(12.000000, 19.000000)">
                                    <text id="A" font-family="CMUClassicalSerif-Italic, CMU Classical Serif" font-size="17" font-style="italic" font-weight="normal" letter-spacing="-0.408">
                                        <tspan x="0" y="16" fill="#16AABF">A</tspan>
                                    </text>
                                    <text id="R" font-family="CMUClassicalSerif-Italic, CMU Classical Serif" font-size="17" font-style="italic" font-weight="normal" letter-spacing="-0.408">
                                        <tspan x="205" y="31" fill="#16AABF">R</tspan>
                                    </text>
                                    <text id="B" font-family="CMUClassicalSerif-Italic, CMU Classical Serif" font-size="17" font-style="italic" font-weight="normal" letter-spacing="-0.408">
                                        <tspan x="0" y="47" fill="#16AABF">B</tspan>
                                    </text>
                                    <text id="C" font-family="CMUClassicalSerif-Italic, CMU Classical Serif" font-size="17" font-style="italic" font-weight="normal" letter-spacing="-0.408">
                                        <tspan x="0" y="78" fill="#16AABF">C</tspan>
                                    </text>
                                    <g id="Group-4" stroke-width="1" fill-rule="evenodd" transform="translate(15.697465, 4.000000)">
                                        <path d="M43.3025352,9 L43.3025352,32.2680362 L63.6685171,32.2680362 C71.4245292,32.2680362 75.3025352,28.3900301 75.3025352,20.6340181 C75.3025352,12.878006 71.4245292,9 63.6685171,9 L43.3025352,9 Z" id="Path-4" stroke="#16AABF" stroke-linejoin="round"></path>
                                        <path d="M137.302535,9 L137.302535,32.2680362 L157.668517,32.2680362 C165.424529,32.2680362 169.302535,28.3900301 169.302535,20.6340181 C169.302535,12.878006 165.424529,9 157.668517,9 L137.302535,9 Z" id="Path-4" stroke="#16AABF" stroke-linejoin="round"></path>
                                        <path d="M85.3025352,44 C89.839311,47.5844382 92.1076988,51.4624442 92.1076988,55.6340181 C92.1076988,59.8055919 89.839311,63.683598 85.3025352,67.2680362 C106.635869,67.2680362 117.302535,63.3900301 117.302535,55.6340181 C117.302535,47.878006 106.635869,44 85.3025352,44 Z" id="Path-4" stroke="#16AABF" stroke-linejoin="round"></path>
                                        <line x1="1.96195215" y1="68" x2="20.3025352" y2="68" id="Path-7" stroke="#16AABF" stroke-linecap="round" stroke-linejoin="round"></line>
                                        <polyline id="Path-8" stroke="#16AABF" stroke-linecap="round" stroke-linejoin="round" points="-5.68439252e-14 37 20.3025352 37 20.3025352 50.8345183 90.9332659 50.8345183"></polyline>
                                        <polyline id="Path-9" stroke="#16AABF" stroke-linecap="round" stroke-linejoin="round" points="42.3025352 68 59.3025352 68 59.3025352 60 90.9332659 60"></polyline>
                                        <circle id="Oval" stroke="#16AABF" cx="39.3025352" cy="68" r="2.5"></circle>
                                        <line x1="117.302535" y1="55.6340181" x2="137.302535" y2="55.6340181" id="Path-10" stroke="#16AABF"></line>
                                        <polyline id="Path-11" stroke="#16AABF" points="0 6 20.3025352 6 20.3025352 16 43.3025352 16"></polyline>
                                        <polyline id="Path-12" stroke="#16AABF" points="20.3025352 37 20.3025352 26 43.3025352 26"></polyline>
                                        <polyline id="Path-13" stroke="#16AABF" stroke-linecap="round" stroke-linejoin="round" points="159.009759 56 169.302535 56 169.302535 39.498186 117.302535 39.498186 117.302535 25.5782606 137.107381 25.5782606"></polyline>
                                        <line x1="75.3025352" y1="20.6340181" x2="137.302535" y2="20.6340181" id="Path-14" stroke="#16AABF"></line>
                                        <polyline id="Path-15" stroke="#16AABF" stroke-linejoin="round" points="20.3025352 6 20.3025352 6.03961325e-14 101.302535 6.03961325e-14 101.302535 16 137.302535 16"></polyline>
                                        <line x1="169.302535" y1="20.6340181" x2="189.189997" y2="20.6340181" id="Path-16" stroke="#16AABF" stroke-linecap="round" stroke-linejoin="round"></line>
                                        <polygon id="Triangle" stroke="#16AABF" stroke-linejoin="round" transform="translate(28.302535, 68.000000) rotate(-270.000000) translate(-28.302535, -68.000000) " points="28.3025352 60 36.3025352 76 20.3025352 76"></polygon>
                                        <polygon id="Triangle" stroke="#16AABF" stroke-linejoin="round" transform="translate(145.302535, 56.000000) rotate(-270.000000) translate(-145.302535, -56.000000) " points="145.302535 48 153.302535 64 137.302535 64"></polygon>
                                        <circle id="Oval" stroke="#16AABF" cx="156.302535" cy="56" r="2.5"></circle>
                                    </g>
                                </g>
                            </g>
                        </g>
                    </g>
                </g>
            </g>
        </g>
    </g>
</svg>